<?xml version="1.0" encoding="UTF-8" standalone="no"?>
<svg
   xmlns:dc="http://purl.org/dc/elements/1.1/"
   xmlns:cc="http://creativecommons.org/ns#"
   xmlns:rdf="http://www.w3.org/1999/02/22-rdf-syntax-ns#"
   xmlns:svg="http://www.w3.org/2000/svg"
   xmlns="http://www.w3.org/2000/svg"
   id="svg2"
   viewBox="0 0 599.99999 799.99999"
   height="800"
   width="600"
   version="1.1">
  <defs
     id="defs4" />
  <metadata
     id="metadata7">
    <rdf:RDF>
      <cc:Work
         rdf:about="">
        <dc:format>image/svg+xml</dc:format>
        <dc:type
           rdf:resource="http://purl.org/dc/dcmitype/StillImage" />
        <dc:title></dc:title>
      </cc:Work>
    </rdf:RDF>
  </metadata>
  <path
     style="fill:none;stroke:#34b8b8;stroke-width:10;stroke-linecap:butt;stroke-linejoin:miter;stroke-miterlimit:4;stroke-opacity:1;stroke-dasharray:none"
     id="path4149"
     d="m 331.83511,803.09435 0,-22.7923 -12.12183,-17.6777 6.06092,-12.1218 -15.15229,-25.25384 -8.5863,23.23354 -4.04061,20.7081 -12.12183,21.7183 -19.69797,-19.1929 -13.63706,-32.82998 -29.29443,-14.64721 -7.57614,-19.1929 7.07107,-26.76904 -8.08122,-18.68782 -21.21321,-9.59645 -2.0203,-14.14214 14.14213,-15.65736 0,-13.63706 -13.63706,-21.21321 17.67767,-13.63706 -1.01015,-17.67766 -14.64721,-19.1929 8.5863,-10.60661 -10.60661,-44.95178 -5.55584,-44.95179 8.5863,-32.82996 3.03046,-32.32488 14.14213,-21.71828 -0.50507,-23.23351 17.17259,-22.72843 0.50508,-26.76904 -10.6066,-28.28428 3.03045,-22.72843 25.75889,-38.89087 50.00255,-34.34519 214.66026,-156.07046" />
  <path
     style="fill:none;stroke:#34b8b8;stroke-width:10;stroke-linecap:butt;stroke-linejoin:miter;stroke-miterlimit:4;stroke-opacity:1;stroke-dasharray:none"
     id="path4151"
     d="m 541.12574,805.33625 7.38709,-29.5799 1.01015,-25.2538 6.06092,-46.46704 -8.08122,-19.1929 -1.01015,-48.48732 -14.14214,-17.1726 2.02031,-22.22335 -10.10153,-16.16244 6.06092,-26.26397 24.24366,-3.03046 32.32488,11.11168 11.11168,-8.08122 -12.12183,-39.39595 10.10152,-36.36549 12.12183,-15.15229 -5.05076,-43.43656 -8.08122,-23.23351 10.10152,-31.31472 16.16245,-12.12184" />
  <path
     style="fill:#34b8b8;fill-opacity:1;fill-rule:evenodd;stroke:none"
     id="path4155"
     d="m 569,-1 -17,0.5 -4.5,9 -5,14 -10.5,-2 -6,12.5 7.5,2.5 13,2 8.5,5.5 -5,10.5 14,2.5 17,1.5 2,-10 17.5,-10 -7,-17 -7,-5 -16,-9.5 z M 486.75,38.75 459.5,50.5 449.5,68 435,87 l 9,12.5 18.5,-2 6,15.5 12,14.5 24,5.5 4.5,7 29.5,0 5.5,-15.5 15,-1.5 -9,8.5 5.5,7 2,24.5 10.5,9.5 12.5,-3 13.5,4 10.46352,10.7897 1,-90.637339 L 595,96.5 586.5,110.5 582,101 572,99 575.5,89 557.5,62.5 543,57 535,65.5 528,57 509.5,41 z M 603,60.5 584.32812,61.810547 589.5,71.5 586,83 l 8,7 8.32618,-9.7897 z m -13.98047,117.95312 -15.55664,1.41407 -14.84766,2.12109 -19.80078,2.1211 -1.41406,16.9707 -9.19141,1.41406 -16.9707,13.43555 -22.62695,3.53515 -20.50586,-5.65625 -2.12305,32.52735 6.36524,16.9707 26.86914,11.3125 -15.55664,3.53516 -5.65625,17.67773 -2.1211,15.55664 30.40625,2.1211 0.70703,14.84961 4.24219,19.09179 14.84961,14.14258 -0.70703,32.52734 7.77734,19.0918 16.26368,4.94922 11.31445,-7.77734 8.48437,-11.31446 14.84961,-16.9707 -4.94922,-19.0918 8.48438,-9.1914 14.49675,4.24086 3.0931,-24.83259 -8.4857,-0.18106 -6.98306,-4.68424 -6.36328,-13.43555 -16.9707,-11.3125 -2.1211,5.65625 -9.19336,-0.70703 -6.36328,-13.43555 23.33399,-0.70703 -2.1211,-14.84766 -9.1914,-19.80078 6.36328,-12.72656 -3.53516,-22.62695 -10.60742,-6.36524 17.67774,1.41406 2.12109,22.62696 18.38476,6.36523 14.23047,1.32618 -0.79492,-49.41016 z" />
  <path
     style="fill:#fd8c1b;fill-opacity:1;fill-rule:evenodd;stroke:none"
     id="path4180"
     d="m 209.43107,745.61044 10.00268,-4.37617 5.00134,8.12718 -10.62785,5.0013 z" />
  <path
     id="path4185"
     d="m 25.090886,396.01139 3.801649,-5.06886 31.680412,11.40495 29.399421,0.25344 22.303012,9.12396 9.88429,12.67216 -1.77411,8.36363 -25.090883,-1.01377 -10.898061,-5.06887 -12.418721,4.05509 -0.506887,10.64462 -29.145978,0 -17.994474,-13.93938 -13.432494,-14.44627 2.407711,-15.46004 z"
     style="fill:#fd8c1b;fill-rule:evenodd;stroke:none;stroke-width:1px;stroke-linecap:butt;stroke-linejoin:miter;stroke-opacity:1;fill-opacity:1" />
  <path
     id="path4187"
     d="m 152.8263,406.90946 9.88429,2.66115 2.28099,12.79889 -11.91183,10.39117 -8.61707,-1.90082 1.14049,-9.75757 1.01377,-10.77134 z"
     style="fill:#fd8c1b;fill-rule:evenodd;stroke:none;stroke-width:1px;stroke-linecap:butt;stroke-linejoin:miter;stroke-opacity:1;fill-opacity:1" />
  <path
     id="path4189"
     d="m 181.1828,307.70609 7.52688,-10.39426 -0.89606,-17.2043 31.00358,-13.08244 5.91398,-17.02509 14.89945,7.12447 2.15427,10.77134 21.6694,-1.39394 10.01101,-1.90082 24.584,17.36086 19.64186,-6.33608 8.11018,-6.71625 18.7548,0.50689 15.33332,10.13773 10.01101,0.38017 3.92837,-5.95592 -1.90082,-6.84297 11.1515,2.15427 -2.66115,10.13773 -7.34986,1.52066 0,19.00825 3.67493,17.36086 5.44903,9.63085 -2.28099,11.40495 -15.07987,3.5482 -14.44627,-5.82919 -10.01101,5.57575 -21.41596,-12.16528 -16.60053,-3.29476 -12.54545,-10.13773 -19.38841,0.12672 -23.4435,4.05509 -3.29477,9.75757 17.23415,4.56198 1.52066,20.27546 -14.95316,16.9807 -9.3774,10.01101 -29.14598,5.19559 -10.26445,4.05509 0.25344,-22.68317 7.85675,-12.54545 -10.5179,-3.29476 -4.94215,-11.91184 -0.88705,-17.10742 -8.2369,-5.95591 z"
     style="fill:#fd8c1b;fill-rule:evenodd;stroke:none;stroke-width:1px;stroke-linecap:butt;stroke-linejoin:miter;stroke-opacity:1;fill-opacity:1" />
  <path
     id="path4191"
     d="M 198.38672 435.30469 L 203.58398 442.47266 L 203.04688 452.33008 L 209.67773 456.98828 L 210.39453 466.12891 L 198.0293 466.66602 L 193.90625 451.61328 L 180.10742 441.39844 L 158.78125 450.35938 L 156.45117 458.24414 L 166.8457 460.75195 L 172.93945 455.73438 L 185.66211 459.31836 L 195.16211 471.50586 L 194.98242 481.7207 L 184.94531 477.24023 L 164.69531 492.29297 L 166.12891 510.93164 L 163.08203 525.26953 L 165.94922 531.18359 L 173.29688 519.35547 L 182.97461 532.07812 L 179.0332 544.26562 L 175.80664 568.99609 L 147.13281 571.68555 L 147.49023 589.06836 L 158.78125 594.62305 L 184.22852 613.79883 L 218.81641 624.19336 L 257.70703 628.85352 L 283.87109 622.40234 L 309.67773 624.91016 L 313.26172 614.51562 L 304.12109 609.14062 L 302.15039 591.57617 L 318.09961 577.06055 L 332.79492 580.64453 L 331.18359 615.77148 L 338.35156 627.41992 L 348.74609 627.95703 L 360.21484 615.5918 L 355.91406 587.45508 L 347.49023 579.21094 L 346.77344 562.00781 L 339.42578 546.41602 L 320.07227 543.18945 L 301.61328 546.77344 L 272.40234 544.98242 L 241.93555 533.51172 L 242.65234 527.06055 L 252.15039 511.82812 L 259.85742 497.66992 L 260.03516 487.27539 L 252.86719 481.00391 L 241.93555 480.82422 L 241.57617 472.75977 L 255.19727 472.93945 L 264.51562 484.58789 L 266.12891 512.18555 L 270.60938 520.42969 L 282.61719 520.25 L 298.74609 503.4043 L 313.97852 503.58398 L 325.44727 492.11523 L 333.33398 490.32227 L 339.96484 498.38672 L 340.14258 523.29688 L 349.82031 533.33398 L 351.79297 543.36914 L 363.61914 558.78125 L 384.76758 559.14062 L 397.49023 567.02539 L 399.82031 584.05078 L 417.38281 589.60547 L 435.125 574.73047 L 456.63086 572.22266 L 461.82812 560.75195 L 480.10742 553.04688 L 492.29297 542.47266 L 494.08594 507.34766 L 478.49414 485.66211 L 466.66602 485.48438 L 458.96094 494.44531 L 442.65234 495.33984 L 425.98633 482.61719 L 391.75586 469.17578 L 317.38281 468.09961 L 301.25391 460.21484 L 275.80664 459.85742 L 253.22656 441.21875 L 232.07812 440.14258 L 208.24414 435.30469 L 198.38672 435.30469 z M 370.25 494.08594 L 394.08594 494.08594 L 426.52344 518.45898 L 428.85352 535.66211 L 409.67773 546.05664 L 384.76758 544.08594 L 364.51562 527.77734 L 358.96094 515.77148 L 360.75195 504.30078 L 370.25 494.08594 z "
     style="fill:#fd8c1b;fill-rule:evenodd;stroke:none;stroke-width:1px;stroke-linecap:butt;stroke-linejoin:miter;stroke-opacity:1;fill-opacity:1" />
  <path
     id="path4193"
     d="m 144.44444,531.72043 12.90323,-0.35842 5.19713,13.97849 1.97133,12.72402 -6.63083,3.2258 -13.62007,-11.82795 -3.94265,-12.3656 z"
     style="fill:#fd8c1b;fill-rule:evenodd;stroke:none;stroke-width:1px;stroke-linecap:butt;stroke-linejoin:miter;stroke-opacity:1;fill-opacity:1" />
  <path
     id="path4197"
     d="m 181.71884,185.40002 10.13773,-10.13773 19.00825,-2.28099 23.06334,-9.3774 21.79612,-20.52891 37.50961,-5.32231 39.03026,0.76033 8.36363,-10.13773 -6.58952,-16.47382 -22.30301,-8.61707 -7.09641,-22.303007 -12.16528,-4.055092 -9.63085,4.561979 -27.87876,-22.049567 -19.76858,-19.26169 -21.54268,8.110186 -15.20659,24.077112 -15.46004,-1.013773 -6.84297,6.842969 -29.14598,-4.055093 -0.76033,33.454516 8.61707,20.02202 3.29476,10.39117 -7.09641,1.77411 -8.87051,-6.33609 -11.40495,4.0551 1.01377,10.39117 14.69971,0.25345 10.89806,-7.85675 3.04132,29.39943 5.32231,13.93938 z"
     style="fill:#fd8c1b;fill-rule:evenodd;stroke:none;stroke-width:1px;stroke-linecap:butt;stroke-linejoin:miter;stroke-opacity:1;fill-opacity:1" />
</svg>
