<?xml version="1.0" encoding="UTF-8" standalone="no"?>
<svg
   xmlns:dc="http://purl.org/dc/elements/1.1/"
   xmlns:cc="http://creativecommons.org/ns#"
   xmlns:rdf="http://www.w3.org/1999/02/22-rdf-syntax-ns#"
   xmlns:svg="http://www.w3.org/2000/svg"
   xmlns="http://www.w3.org/2000/svg"
   width="600"
   height="800"
   viewBox="0 0 599.99999 799.99999"
   id="svg2"
   version="1.1">
  <defs
     id="defs4" />
  <metadata
     id="metadata7">
    <rdf:RDF>
      <cc:Work
         rdf:about="">
        <dc:format>image/svg+xml</dc:format>
        <dc:type
           rdf:resource="http://purl.org/dc/dcmitype/StillImage" />
        <dc:title></dc:title>
      </cc:Work>
    </rdf:RDF>
  </metadata>
  <g
     id="layer1"
     transform="translate(0,-252.36235)">
    <path
       style="fill:none;fill-rule:evenodd;stroke:#34b8b8;stroke-width:10;stroke-linecap:butt;stroke-linejoin:miter;stroke-miterlimit:4;stroke-dasharray:none;stroke-opacity:1"
       d="m 331.83511,1055.4567 0,-22.7923 -12.12183,-17.6777 6.06092,-12.1218 -15.15229,-25.25384 -8.5863,23.23354 -4.04061,20.7081 -12.12183,21.7183 -19.69797,-19.1929 -13.63706,-32.82998 -29.29443,-14.64721 -7.57614,-19.1929 7.07107,-26.76904 -8.08122,-18.68782 -21.21321,-9.59645 -2.0203,-14.14214 14.14213,-15.65736 0,-13.63706 -13.63706,-21.21321 17.67767,-13.63706 -1.01015,-17.67766 -14.64721,-19.1929 8.5863,-10.60661 -10.60661,-44.95178 -5.55584,-44.95179 8.5863,-32.82996 3.03046,-32.32488 14.14213,-21.71828 -0.50507,-23.23351 17.17259,-22.72843 0.50508,-26.76904 -10.6066,-28.28428 3.03045,-22.72843 25.75889,-38.89087 50.00255,-34.34519 214.66026,-156.07046"
       id="path4149" />
    <path
       style="fill:none;fill-rule:evenodd;stroke:#34b8b8;stroke-width:10;stroke-linecap:butt;stroke-linejoin:miter;stroke-miterlimit:4;stroke-dasharray:none;stroke-opacity:1"
       d="m 541.12574,1057.6986 7.38709,-29.5799 1.01015,-25.2538 6.06092,-46.46704 -8.08122,-19.1929 -1.01015,-48.48732 -14.14214,-17.1726 2.02031,-22.22335 -10.10153,-16.16244 6.06092,-26.26397 24.24366,-3.03046 32.32488,11.11168 11.11168,-8.08122 -12.12183,-39.39595 10.10152,-36.36549 12.12183,-15.15229 -5.05076,-43.43656 -8.08122,-23.23351 10.10152,-31.31472 16.16245,-12.12184"
       id="path4151" />
    <path
       style="fill:#34b8b8;fill-opacity:1;fill-rule:evenodd;stroke:none;stroke-width:5;stroke-linecap:butt;stroke-linejoin:miter;stroke-miterlimit:4;stroke-dasharray:none;stroke-opacity:1"
       d="m 569,-1 -17,0.5 -4.5,9 -5,14 -10.5,-2 -6,12.5 7.5,2.5 13,2 8.5,5.5 -5,10.5 14,2.5 17,1.5 2,-10 17.5,-10 -7,-17 -7,-5 -16,-9.5 z M 486.75,38.75 459.5,50.5 449.5,68 435,87 l 9,12.5 18.5,-2 6,15.5 12,14.5 24,5.5 4.5,7 29.5,0 5.5,-15.5 15,-1.5 -9,8.5 5.5,7 2,24.5 10.5,9.5 12.5,-3 13.5,4 10.46352,10.7897 1,-90.637339 L 595,96.5 586.5,110.5 582,101 572,99 575.5,89 557.5,62.5 543,57 535,65.5 528,57 509.5,41 Z M 603,60.5 584.32812,61.810547 589.5,71.5 586,83 l 8,7 8.32618,-9.7897 z m -13.98047,117.95312 -15.55664,1.41407 -14.84766,2.12109 -19.80078,2.1211 -1.41406,16.9707 -9.19141,1.41406 -16.9707,13.43555 -22.62695,3.53515 -20.50586,-5.65625 -2.12305,32.52735 6.36524,16.9707 26.86914,11.3125 -15.55664,3.53516 -5.65625,17.67773 -2.1211,15.55664 30.40625,2.1211 0.70703,14.84961 4.24219,19.09179 14.84961,14.14258 -0.70703,32.52734 7.77734,19.0918 16.26368,4.94922 11.31445,-7.77734 8.48437,-11.31446 14.84961,-16.9707 -4.94922,-19.0918 8.48438,-9.1914 14.49675,4.24086 3.0931,-24.83259 -8.4857,-0.18106 -6.98306,-4.68424 -6.36328,-13.43555 -16.9707,-11.3125 -2.1211,5.65625 -9.19336,-0.70703 -6.36328,-13.43555 23.33399,-0.70703 -2.1211,-14.84766 -9.1914,-19.80078 6.36328,-12.72656 -3.53516,-22.62695 -10.60742,-6.36524 17.67774,1.41406 2.12109,22.62696 18.38476,6.36523 14.23047,1.32618 -0.79492,-49.41016 z"
       transform="translate(0,252.36235)"
       id="path4155" />
    <path
       style="fill:#fd8c1b;fill-rule:evenodd;stroke:none;stroke-width:1px;stroke-linecap:butt;stroke-linejoin:miter;stroke-opacity:1;fill-opacity:1"
       d="m 159.14163,383.9675 6.18884,-6.6309 21.66095,0 8.8412,7.07296 -0.44206,11.93562 -11.0515,4.86266 -15.03005,-3.97854 -9.28326,-11.49356"
       id="path4165" />
    <path
       style="fill:#fd8c1b;fill-rule:evenodd;stroke:none;stroke-width:1px;stroke-linecap:butt;stroke-linejoin:miter;stroke-opacity:1;fill-opacity:1"
       d="m 206,381.7572 c 1.76824,0 16.79828,0.44206 16.79828,0.44206 l 4.86266,7.51502 -8.8412,3.53648 -11.0515,-3.09442 z"
       id="path4167" />
    <path
       style="fill:#fd8c1b;fill-rule:evenodd;stroke:none;stroke-width:1px;stroke-linecap:butt;stroke-linejoin:miter;stroke-opacity:1;fill-opacity:1"
       d="m 203.34764,364.95892 2.65236,9.28326 11.49356,0.88412 -0.44206,-6.6309 z"
       id="path4169" />
    <path
       style="fill:#fd8c1b;fill-rule:evenodd;stroke:none;stroke-width:1px;stroke-linecap:butt;stroke-linejoin:miter;stroke-opacity:1;fill-opacity:1"
       d="m 247.55365,353.90742 2.2103,9.72532 9.72532,-3.97854 -7.07296,-7.07297 z"
       id="path4171" />
    <path
       style="fill:#fd8c1b;fill-rule:evenodd;stroke:none;stroke-width:1px;stroke-linecap:butt;stroke-linejoin:miter;stroke-opacity:1;fill-opacity:1"
       d="m 13.753682,649.75457 10.002678,-8.12718 9.377511,11.87818 -10.002678,10.62784 -9.377511,-4.37617 z"
       id="path4174" />
    <path
       style="fill:#fd8c1b;fill-opacity:1;fill-rule:evenodd;stroke:none;stroke-width:1px;stroke-linecap:butt;stroke-linejoin:miter;stroke-opacity:1"
       d="m 234.43776,589.11333 8.75235,0 1.8755,9.37751 -8.75234,3.75101 -2.50068,-9.5338 z"
       id="path4176" />
    <path
       style="fill:#fd8c1b;fill-rule:evenodd;stroke:none;stroke-width:1px;stroke-linecap:butt;stroke-linejoin:miter;stroke-opacity:1;fill-opacity:1"
       d="m 221.93442,749.78134 13.12851,1.87551 1.8755,9.37751 -8.12717,2.50067 -9.37751,-5.62651 z"
       id="path4178" />
    <path
       style="fill:#fd8c1b;fill-rule:evenodd;stroke:none;stroke-width:1px;stroke-linecap:butt;stroke-linejoin:miter;stroke-opacity:1;fill-opacity:1"
       d="m 209.43107,997.97279 10.00268,-4.37617 5.00134,8.12718 -10.62785,5.0013 z"
       id="path4180" />
    <path
       style="fill:#fd8c1b;fill-rule:evenodd;stroke:none;stroke-width:1px;stroke-linecap:butt;stroke-linejoin:miter;stroke-opacity:1;fill-opacity:1"
       d="m 215.37016,809.48483 6.56426,-6.87684 7.81459,6.87684 -9.6901,8.12717 z"
       id="path4182" />
    <g
       id="flowRoot4184"
       style="font-style:normal;font-variant:normal;font-weight:bold;font-stretch:normal;font-size:27.5px;line-height:125%;font-family:monospace;-inkscape-font-specification:'monospace Bold';text-align:start;letter-spacing:0px;word-spacing:0px;writing-mode:lr-tb;text-anchor:start;fill:#eeeeee;fill-opacity:1;stroke:none;stroke-width:1px;stroke-linecap:butt;stroke-linejoin:miter;stroke-opacity:1"
       transform="translate(40.143985,252.57737)">
      <path
         id="path4183"
         style="font-style:normal;font-variant:normal;font-weight:bold;font-stretch:normal;font-size:27.5px;font-family:monospace;-inkscape-font-specification:'monospace Bold'"
         d="m 2.0395508,83.269245 4.7265625,0 2.3901367,8.795166 2.376709,-8.795166 4.753418,0 0,20.047605 -3.410645,0 0,-16.059568 -2.121582,8.76831 -3.1555172,0 -2.1484375,-8.76831 0,16.059568 -3.4106445,0 0,-20.047605 z" />
      <path
         id="path4185"
         style="font-style:normal;font-variant:normal;font-weight:bold;font-stretch:normal;font-size:27.5px;font-family:monospace;-inkscape-font-specification:'monospace Bold'"
         d="m 31.674561,102.55147 q -0.993653,0.57739 -2.13501,0.85938 -1.141358,0.29541 -2.457276,0.29541 -3.477783,0 -5.438232,-2.09473 -1.960449,-2.094727 -1.960449,-5.800782 0,-3.719482 1.973877,-5.814209 1.973877,-2.108154 5.45166,-2.108154 1.208496,0 2.322998,0.281983 1.12793,0.281982 2.242432,0.872802 l 0,3.598633 q -0.859375,-0.738525 -1.893311,-1.12793 -1.020508,-0.402832 -2.121582,-0.402832 -1.920166,0 -2.954102,1.221924 -1.033935,1.221924 -1.033935,3.477783 0,2.25586 1.033935,3.464356 1.033936,1.208496 2.954102,1.208496 1.141357,0 2.13501,-0.37598 0.993652,-0.389401 1.879883,-1.168209 l 0,3.612059 z" />
      <path
         id="path4187"
         style="font-style:normal;font-variant:normal;font-weight:bold;font-stretch:normal;font-size:27.5px;font-family:monospace;-inkscape-font-specification:'monospace Bold'"
         d="m 36.280273,86.760455 0,-3.49121 11.937256,0 0,3.49121 -3.988037,0 0,13.065186 3.988037,0 0,3.491209 -11.937256,0 0,-3.491209 3.988038,0 0,-13.065186 -3.988038,0 z" />
      <path
         id="path4189"
         style="font-style:normal;font-variant:normal;font-weight:bold;font-stretch:normal;font-size:27.5px;font-family:monospace;-inkscape-font-specification:'monospace Bold'"
         d="m 64.894775,93.554889 0,9.761961 -3.90747,0 0,-9.157713 q 0,-1.638184 -0.469971,-2.336426 -0.456543,-0.71167 -1.503906,-0.71167 -1.060791,0 -1.678467,0.95337 -0.604248,0.953369 -0.604248,2.645263 l 0,8.607176 -3.907471,0 0,-15.039061 3.907471,0 0,2.25586 q 0.41626,-1.248779 1.42334,-1.933594 1.00708,-0.684814 2.43042,-0.684814 2.135009,0 3.222656,1.423339 1.087646,1.409913 1.087646,4.216309 z" />
      <path
         id="path4191"
         style="font-style:normal;font-variant:normal;font-weight:bold;font-stretch:normal;font-size:27.5px;font-family:monospace;-inkscape-font-specification:'monospace Bold'"
         d="m 76.321777,84.00777 0,4.270019 5.142823,0 0,3.021241 -5.142823,0 0,7.116699 q 0,1.00708 0.483399,1.450195 0.496826,0.429686 1.638183,0.429686 l 3.021241,0 0,3.02124 -3.303223,0 q -3.383789,0 -4.578857,-1.07422 -1.195069,-1.08764 -1.195069,-4.014889 l 0,-6.928711 -3.840332,0 0,-3.021241 3.840332,0 0,-4.270019 3.934326,0 z" />
      <path
         id="path4193"
         style="font-style:normal;font-variant:normal;font-weight:bold;font-stretch:normal;font-size:27.5px;font-family:monospace;-inkscape-font-specification:'monospace Bold'"
         d="m 93.146729,104.94161 q -0.792237,2.12158 -1.906739,3.08838 -1.101074,0.98022 -2.685547,0.98022 l -3.249511,0 0,-2.99438 1.5979,0 q 1.208496,0 1.772461,-0.41626 0.563965,-0.40284 1.141357,-1.89331 l 0.295411,-0.80567 -5.720215,-14.622801 4.135742,0 3.4375,9.761963 3.289795,-9.761963 4.135742,0 -6.243896,16.663821 z" />
      <path
         id="path4195"
         style="font-style:normal;font-variant:normal;font-weight:bold;font-stretch:normal;font-size:27.5px;font-family:monospace;-inkscape-font-specification:'monospace Bold'"
         d="m 115.5979,92.426959 q -0.64453,-0.59082 -1.51733,-0.88623 -0.85938,-0.29541 -1.89331,-0.29541 -1.24878,0 -2.18872,0.443115 -0.92652,0.429687 -1.43677,1.262207 -0.32227,0.510254 -0.45655,1.235352 -0.12084,0.725097 -0.12084,2.202148 l 0,6.928709 -3.93433,0 0,-15.039061 3.93433,0 0,2.336426 q 0.57739,-1.289062 1.77246,-1.987304 1.19506,-0.71167 2.79296,-0.71167 0.80567,0 1.57105,0.201416 0.77881,0.187988 1.47705,0.563964 l 0,3.746338 z" />
      <path
         id="path4197"
         style="font-style:normal;font-variant:normal;font-weight:bold;font-stretch:normal;font-size:27.5px;font-family:monospace;-inkscape-font-specification:'monospace Bold'"
         d="m 131.48291,102.57833 q -1.36963,0.56396 -2.79297,0.84594 -1.42334,0.28199 -3.00781,0.28199 -3.77319,0 -5.77393,-2.01416 -1.9873,-2.027592 -1.9873,-5.827641 0,-3.679199 1.92016,-5.814209 1.92017,-2.135009 5.23682,-2.135009 3.34351,0 5.18311,1.987304 1.85302,1.973877 1.85302,5.57251 l 0,1.5979 -10.19165,0 q 0.0134,1.772461 1.04737,2.645264 1.03393,0.872801 3.08838,0.872801 1.3562,0 2.67211,-0.3894 1.31592,-0.389407 2.75269,-1.235354 l 0,3.612064 z m -3.33008,-8.459476 q -0.0268,-1.557617 -0.80566,-2.349854 -0.76538,-0.805664 -2.26929,-0.805664 -1.3562,0 -2.16186,0.83252 -0.80567,0.819092 -0.95337,2.336426 l 6.19018,-0.01343 z" />
      <path
         id="path4199"
         style="font-style:normal;font-variant:normal;font-weight:bold;font-stretch:normal;font-size:27.5px;font-family:monospace;-inkscape-font-specification:'monospace Bold'"
         d="m 151.61108,83.269245 3.96119,0 0,7.64038 4.95483,0 0,-7.64038 3.96118,0 0,20.047605 -3.96118,0 0,-8.916014 -4.95483,0 0,8.916014 -3.96119,0 0,-20.047605 z" />
      <path
         id="path4201"
         style="font-style:normal;font-variant:normal;font-weight:bold;font-stretch:normal;font-size:27.5px;font-family:monospace;-inkscape-font-specification:'monospace Bold'"
         d="m 168.46289,98.066608 0,-9.788819 3.93433,0 0,9.184571 q 0,1.624756 0.45654,2.322998 0.45654,0.698242 1.51733,0.698242 1.06079,0 1.65162,-0.939941 0.60424,-0.939942 0.60424,-2.631836 l 0,-8.634034 3.93433,0 0,15.039061 -3.93433,0 0,-2.229 q -0.41626,1.24878 -1.42334,1.93359 -0.99365,0.68482 -2.40356,0.68482 -2.14844,0 -3.24951,-1.42334 -1.08765,-1.42334 -1.08765,-4.216312 z" />
      <path
         id="path4203"
         style="font-style:normal;font-variant:normal;font-weight:bold;font-stretch:normal;font-size:27.5px;font-family:monospace;-inkscape-font-specification:'monospace Bold'"
         d="m 192.12256,84.00777 0,4.270019 5.14282,0 0,3.021241 -5.14282,0 0,7.116699 q 0,1.00708 0.4834,1.450195 0.49682,0.429686 1.63818,0.429686 l 3.02124,0 0,3.02124 -3.30322,0 q -3.38379,0 -4.57886,-1.07422 -1.19507,-1.08764 -1.19507,-4.014889 l 0,-6.928711 -3.84033,0 0,-3.021241 3.84033,0 0,-4.270019 3.93433,0 z" />
    </g>
    <g
       id="flowRoot4184-0"
       style="font-style:normal;font-variant:normal;font-weight:normal;font-stretch:normal;font-size:30px;line-height:125%;font-family:Roboto;-inkscape-font-specification:'Roboto, Normal';text-align:start;letter-spacing:0px;word-spacing:0px;writing-mode:lr-tb;text-anchor:start;fill:#eeeeee;fill-opacity:1;stroke:none;stroke-width:1px;stroke-linecap:butt;stroke-linejoin:miter;stroke-opacity:1"
       transform="translate(254.14468,501.85843)">
      <path
         id="path4227"
         style="font-style:normal;font-variant:normal;font-weight:bold;font-stretch:normal;font-size:27.5px;font-family:monospace;-inkscape-font-specification:'monospace Bold'"
         d="m 6.3901367,94.212848 0,5.935062 2.631836,0 q 1.8933103,0 2.6452633,-0.644535 0.765381,-0.644531 0.765381,-2.242431 0,-1.624756 -0.792236,-2.336426 -0.792236,-0.71167 -2.6184083,-0.71167 l -2.631836,0 z m 0,-7.814941 0,4.659423 2.631836,0 q 1.5039063,0 2.1350093,-0.537109 0.644532,-0.537109 0.644532,-1.772461 0,-1.235351 -0.657959,-1.785889 -0.644532,-0.563964 -2.1215823,-0.563964 l -2.631836,0 z m -3.8269043,-3.155518 6.4587403,0 q 3.3435063,0 5.0219723,1.275635 1.691895,1.262207 1.691895,3.786621 0,1.933594 -0.993652,3.02124 -0.993653,1.087647 -2.913819,1.262207 2.296143,0.228272 3.450928,1.54419 1.168213,1.315918 1.168213,3.679199 0,2.900389 -1.745606,4.202879 -1.745605,1.30249 -5.6799313,1.30249 l -6.4587403,0 0,-20.074461 z" />
      <path
         id="path4229"
         style="font-style:normal;font-variant:normal;font-weight:bold;font-stretch:normal;font-size:27.5px;font-family:monospace;-inkscape-font-specification:'monospace Bold'"
         d="m 32.225098,102.57833 q -1.369629,0.56396 -2.792969,0.84594 -1.42334,0.28199 -3.007813,0.28199 -3.773193,0 -5.773925,-2.01416 -1.987305,-2.027592 -1.987305,-5.827641 0,-3.679199 1.920166,-5.814209 1.920166,-2.135009 5.236816,-2.135009 3.343506,0 5.183106,1.987304 1.853027,1.973877 1.853027,5.57251 l 0,1.5979 -10.19165,0 q 0.01343,1.772461 1.047363,2.645264 1.033936,0.872801 3.088379,0.872801 1.356201,0 2.672119,-0.3894 1.315918,-0.389407 2.752686,-1.235354 l 0,3.612064 z M 28.89502,94.118854 q -0.02686,-1.557617 -0.805665,-2.349854 -0.76538,-0.805664 -2.269287,-0.805664 -1.356201,0 -2.161865,0.83252 -0.805664,0.819092 -0.953369,2.336426 l 6.190186,-0.01343 z" />
      <path
         id="path4231"
         style="font-style:normal;font-variant:normal;font-weight:bold;font-stretch:normal;font-size:27.5px;font-family:monospace;-inkscape-font-specification:'monospace Bold'"
         d="m 48.351807,93.554889 0,9.761961 -3.907471,0 0,-9.157713 q 0,-1.638184 -0.469971,-2.336426 -0.456543,-0.71167 -1.503906,-0.71167 -1.060791,0 -1.678467,0.95337 -0.604248,0.953369 -0.604248,2.645263 l 0,8.607176 -3.907471,0 0,-15.039061 3.907471,0 0,2.25586 q 0.41626,-1.248779 1.42334,-1.933594 1.00708,-0.684814 2.43042,-0.684814 2.13501,0 3.222656,1.423339 1.087647,1.409913 1.087647,4.216309 z" />
      <path
         id="path4233"
         style="font-style:normal;font-variant:normal;font-weight:bold;font-stretch:normal;font-size:27.5px;font-family:monospace;-inkscape-font-specification:'monospace Bold'"
         d="m 61.13501,90.412799 0,-7.989502 3.920898,0 0,20.893553 -3.920898,0 0,-2.229 q -0.631104,1.30249 -1.638184,1.96045 -0.993652,0.65796 -2.349853,0.65796 -2.578125,0 -4.001465,-2.06787 -1.42334,-2.067876 -1.42334,-5.827642 0,-3.813476 1.436768,-5.854492 1.450195,-2.041015 4.122314,-2.041015 1.208496,0 2.161865,0.631103 0.966797,0.617676 1.691895,1.866455 z m -5.478516,5.424805 q 0,2.175293 0.725098,3.410644 0.725097,1.235352 2.000732,1.235352 1.275635,0 2.01416,-1.235352 0.738526,-1.235351 0.738526,-3.410644 0,-2.175293 -0.738526,-3.410645 -0.738525,-1.235351 -2.01416,-1.235351 -1.275635,0 -2.000732,1.235351 -0.725098,1.235352 -0.725098,3.410645 z" />
      <path
         id="path4235"
         style="font-style:normal;font-variant:normal;font-weight:bold;font-stretch:normal;font-size:27.5px;font-family:monospace;-inkscape-font-specification:'monospace Bold'"
         d="m 75.328125,91.111041 q -1.409912,0 -2.215576,1.24878 -0.805664,1.235351 -0.805664,3.450927 0,2.215577 0.805664,3.464356 0.805664,1.235356 2.215576,1.235356 1.42334,0 2.229004,-1.235356 0.805664,-1.248779 0.805664,-3.464356 0,-2.215576 -0.805664,-3.450927 -0.805664,-1.24878 -2.229004,-1.24878 z m -6.955566,4.699707 q 0,-3.638916 1.879882,-5.760498 1.893311,-2.135009 5.075684,-2.135009 3.195801,0 5.075684,2.135009 1.89331,2.121582 1.89331,5.760498 0,3.638916 -1.89331,5.773922 -1.879883,2.12159 -5.075684,2.12159 -3.182373,0 -5.075684,-2.12159 -1.879882,-2.135006 -1.879882,-5.773922 z" />
      <path
         id="path4237"
         style="font-style:normal;font-variant:normal;font-weight:bold;font-stretch:normal;font-size:27.5px;font-family:monospace;-inkscape-font-specification:'monospace Bold'"
         d="m 99.054932,92.426959 q -0.644532,-0.59082 -1.517334,-0.88623 -0.859375,-0.29541 -1.893311,-0.29541 -1.248779,0 -2.188721,0.443115 -0.926513,0.429687 -1.436767,1.262207 -0.322266,0.510254 -0.456543,1.235352 -0.12085,0.725097 -0.12085,2.202148 l 0,6.928709 -3.934326,0 0,-15.039061 3.934326,0 0,2.336426 q 0.577393,-1.289062 1.772461,-1.987304 1.195069,-0.71167 2.792969,-0.71167 0.805664,0 1.571045,0.201416 0.778808,0.187988 1.477051,0.563964 l 0,3.746338 z" />
      <path
         id="path4239"
         style="font-style:normal;font-variant:normal;font-weight:bold;font-stretch:normal;font-size:27.5px;font-family:monospace;-inkscape-font-specification:'monospace Bold'"
         d="m 109.54199,96.253864 q -2.20215,0 -3.07495,0.563964 -0.8728,0.563965 -0.8728,1.933594 0,1.020508 0.60425,1.624758 0.60424,0.60425 1.63818,0.60425 1.55762,0 2.41699,-1.168217 0.85938,-1.18164 0.85938,-3.289795 l 0,-0.268554 -1.57105,0 z m 5.47852,-1.517334 0,8.58032 -3.90747,0 0,-1.67846 q -0.71167,0.99365 -1.82617,1.53076 -1.11451,0.53711 -2.45728,0.53711 -2.5647,0 -4.00146,-1.3562 -1.42334,-1.35621 -1.42334,-3.786626 0,-2.631836 1.70532,-3.880615 1.70532,-1.262207 5.2771,-1.262207 l 2.72583,0 0,-0.657959 q 0,-0.953369 -0.69825,-1.436768 -0.68481,-0.496826 -2.02758,-0.496826 -1.40992,0 -2.73926,0.362549 -1.31592,0.349121 -2.75269,1.127929 l 0,-3.356933 q 1.30249,-0.537109 2.64527,-0.792236 1.34277,-0.255127 2.84668,-0.255127 3.66577,0 5.14282,1.490478 1.49048,1.490479 1.49048,5.330811 z" />
    </g>
    <g
       id="flowRoot4184-2"
       style="font-style:normal;font-variant:normal;font-weight:normal;font-stretch:normal;font-size:30px;line-height:125%;font-family:Roboto;-inkscape-font-specification:'Roboto, Normal';text-align:start;letter-spacing:0px;word-spacing:0px;writing-mode:lr-tb;text-anchor:start;fill:#eeeeee;fill-opacity:1;stroke:none;stroke-width:1px;stroke-linecap:butt;stroke-linejoin:miter;stroke-opacity:1"
       transform="translate(46.377368,543.09095)">
      <path
         id="path4206"
         style="font-style:normal;font-variant:normal;font-weight:bold;font-stretch:normal;font-size:27.5px;font-family:monospace;-inkscape-font-specification:'monospace Bold'"
         d="m 6.3901367,94.212848 0,5.935062 2.631836,0 q 1.8933103,0 2.6452633,-0.644535 0.765381,-0.644531 0.765381,-2.242431 0,-1.624756 -0.792236,-2.336426 -0.792236,-0.71167 -2.6184083,-0.71167 l -2.631836,0 z m 0,-7.814941 0,4.659423 2.631836,0 q 1.5039063,0 2.1350093,-0.537109 0.644532,-0.537109 0.644532,-1.772461 0,-1.235351 -0.657959,-1.785889 -0.644532,-0.563964 -2.1215823,-0.563964 l -2.631836,0 z m -3.8269043,-3.155518 6.4587403,0 q 3.3435063,0 5.0219723,1.275635 1.691895,1.262207 1.691895,3.786621 0,1.933594 -0.993652,3.02124 -0.993653,1.087647 -2.913819,1.262207 2.296143,0.228272 3.450928,1.54419 1.168213,1.315918 1.168213,3.679199 0,2.900389 -1.745606,4.202879 -1.745605,1.30249 -5.6799313,1.30249 l -6.4587403,0 0,-20.074461 z" />
      <path
         id="path4208"
         style="font-style:normal;font-variant:normal;font-weight:bold;font-stretch:normal;font-size:27.5px;font-family:monospace;-inkscape-font-specification:'monospace Bold'"
         d="m 32.883057,92.426959 q -0.644532,-0.59082 -1.517334,-0.88623 -0.859375,-0.29541 -1.893311,-0.29541 -1.248779,0 -2.188721,0.443115 -0.926513,0.429687 -1.436767,1.262207 -0.322266,0.510254 -0.456543,1.235352 -0.12085,0.725097 -0.12085,2.202148 l 0,6.928709 -3.934326,0 0,-15.039061 3.934326,0 0,2.336426 q 0.577393,-1.289062 1.772461,-1.987304 1.195069,-0.71167 2.792969,-0.71167 0.805664,0 1.571045,0.201416 0.778808,0.187988 1.477051,0.563964 l 0,3.746338 z" />
      <path
         id="path4210"
         style="font-style:normal;font-variant:normal;font-weight:bold;font-stretch:normal;font-size:27.5px;font-family:monospace;-inkscape-font-specification:'monospace Bold'"
         d="m 42.242187,91.111041 q -1.409912,0 -2.215576,1.24878 -0.805664,1.235351 -0.805664,3.450927 0,2.215577 0.805664,3.464356 0.805664,1.235356 2.215576,1.235356 1.42334,0 2.229004,-1.235356 0.805664,-1.248779 0.805664,-3.464356 0,-2.215576 -0.805664,-3.450927 -0.805664,-1.24878 -2.229004,-1.24878 z m -6.955566,4.699707 q 0,-3.638916 1.879883,-5.760498 1.89331,-2.135009 5.075683,-2.135009 3.195801,0 5.075684,2.135009 1.893311,2.121582 1.893311,5.760498 0,3.638916 -1.893311,5.773922 -1.879883,2.12159 -5.075684,2.12159 -3.182373,0 -5.075683,-2.12159 -1.879883,-2.135006 -1.879883,-5.773922 z" />
      <path
         id="path4212"
         style="font-style:normal;font-variant:normal;font-weight:bold;font-stretch:normal;font-size:27.5px;font-family:monospace;-inkscape-font-specification:'monospace Bold'"
         d="m 52.850098,82.423297 3.934326,0 0,10.970459 4.726562,-5.115967 4.766846,0 -5.693359,5.612793 6.015625,9.426268 -4.350586,0 -4.122315,-7.036131 -1.342773,1.289063 0,5.747068 -3.934326,0 0,-20.893553 z" />
      <path
         id="path4214"
         style="font-style:normal;font-variant:normal;font-weight:bold;font-stretch:normal;font-size:27.5px;font-family:monospace;-inkscape-font-specification:'monospace Bold'"
         d="m 81.854004,102.57833 q -1.369629,0.56396 -2.792969,0.84594 -1.42334,0.28199 -3.007812,0.28199 -3.773194,0 -5.773926,-2.01416 -1.987305,-2.027592 -1.987305,-5.827641 0,-3.679199 1.920166,-5.814209 1.920166,-2.135009 5.236817,-2.135009 3.343505,0 5.183105,1.987304 1.853027,1.973877 1.853027,5.57251 l 0,1.5979 -10.19165,0 q 0.01343,1.772461 1.047363,2.645264 1.033936,0.872801 3.088379,0.872801 1.356201,0 2.672119,-0.3894 1.315918,-0.389407 2.752686,-1.235354 l 0,3.612064 z M 78.523926,94.118854 Q 78.49707,92.561237 77.718262,91.769 q -0.765381,-0.805664 -2.269287,-0.805664 -1.356202,0 -2.161866,0.83252 -0.805664,0.819092 -0.953369,2.336426 l 6.190186,-0.01343 z" />
      <path
         id="path4216"
         style="font-style:normal;font-variant:normal;font-weight:bold;font-stretch:normal;font-size:27.5px;font-family:monospace;-inkscape-font-specification:'monospace Bold'"
         d="m 97.980713,93.554889 0,9.761961 -3.907471,0 0,-9.157713 q 0,-1.638184 -0.469971,-2.336426 -0.456542,-0.71167 -1.503906,-0.71167 -1.060791,0 -1.678467,0.95337 -0.604248,0.953369 -0.604248,2.645263 l 0,8.607176 -3.90747,0 0,-15.039061 3.90747,0 0,2.25586 q 0.41626,-1.248779 1.42334,-1.933594 1.00708,-0.684814 2.43042,-0.684814 2.13501,0 3.222656,1.423339 1.087647,1.409913 1.087647,4.216309 z" />
      <path
         id="path4218"
         style="font-style:normal;font-variant:normal;font-weight:bold;font-stretch:normal;font-size:27.5px;font-family:monospace;-inkscape-font-specification:'monospace Bold'"
         d="m 15.400146,137.11446 q -0.939941,0.4834 -1.973876,0.7251 -1.033936,0.2417 -2.175293,0.2417 -4.0551762,0 -6.190186,-2.67212 -2.1350097,-2.67212 -2.1350097,-7.72095 0,-5.06226 2.1350097,-7.73438 2.1350098,-2.67211 6.190186,-2.67211 1.141357,0 2.18872,0.24169 1.047364,0.2417 1.960449,0.7251 l 0,4.4043 q -1.020507,-0.93994 -1.987304,-1.36963 -0.953369,-0.44311 -1.973877,-0.44311 -2.1752931,0 -3.2897951,1.73217 -1.1010742,1.71875 -1.1010742,5.11597 0,3.38379 1.1010742,5.11597 1.114502,1.71875 3.2897951,1.71875 1.020508,0 1.973877,-0.42969 0.966797,-0.44312 1.987304,-1.38306 l 0,4.4043 z" />
      <path
         id="path4220"
         style="font-style:normal;font-variant:normal;font-weight:bold;font-stretch:normal;font-size:27.5px;font-family:monospace;-inkscape-font-specification:'monospace Bold'"
         d="m 26.827148,130.62886 q -2.202148,0 -3.074951,0.56397 -0.872802,0.56396 -0.872802,1.93359 0,1.02051 0.604248,1.62476 0.604248,0.60425 1.638183,0.60425 1.557617,0 2.416992,-1.16822 0.859375,-1.18164 0.859375,-3.28979 l 0,-0.26856 -1.571045,0 z m 5.478516,-1.51733 0,8.58032 -3.907471,0 0,-1.67846 q -0.71167,0.99365 -1.826172,1.53076 -1.114501,0.53711 -2.457275,0.53711 -2.564697,0 -4.001465,-1.3562 -1.42334,-1.35621 -1.42334,-3.78663 0,-2.63183 1.705323,-3.88061 1.705322,-1.26221 5.277099,-1.26221 l 2.72583,0 0,-0.65796 q 0,-0.95337 -0.698242,-1.43676 -0.684814,-0.49683 -2.027588,-0.49683 -1.409912,0 -2.739258,0.36255 -1.315918,0.34912 -2.752685,1.12793 l 0,-3.35694 q 1.30249,-0.53711 2.645264,-0.79223 1.342773,-0.25513 2.846679,-0.25513 3.665772,0 5.142823,1.49048 1.490478,1.49048 1.490478,5.33081 z" />
      <path
         id="path4222"
         style="font-style:normal;font-variant:normal;font-weight:bold;font-stretch:normal;font-size:27.5px;font-family:monospace;-inkscape-font-specification:'monospace Bold'"
         d="m 49.426025,126.80196 q -0.644531,-0.59082 -1.517334,-0.88623 -0.859375,-0.29541 -1.89331,-0.29541 -1.248779,0 -2.188721,0.44311 -0.926514,0.42969 -1.436767,1.26221 -0.322266,0.51025 -0.456543,1.23535 -0.12085,0.7251 -0.12085,2.20215 l 0,6.92871 -3.934326,0 0,-15.03906 3.934326,0 0,2.33643 q 0.577393,-1.28907 1.772461,-1.98731 1.195068,-0.71167 2.792969,-0.71167 0.805664,0 1.571045,0.20142 0.778808,0.18798 1.47705,0.56396 l 0,3.74634 z" />
      <path
         id="path4224"
         style="font-style:normal;font-variant:normal;font-weight:bold;font-stretch:normal;font-size:27.5px;font-family:monospace;-inkscape-font-specification:'monospace Bold'"
         d="m 59.778809,118.38277 0,4.27002 5.142822,0 0,3.02124 -5.142822,0 0,7.1167 q 0,1.00708 0.483398,1.45019 0.496826,0.42969 1.638184,0.42969 l 3.02124,0 0,3.02124 -3.303223,0 q -3.383789,0 -4.578857,-1.07422 -1.195069,-1.08764 -1.195069,-4.01489 l 0,-6.92871 -3.840332,0 0,-3.02124 3.840332,0 0,-4.27002 3.934327,0 z" />
    </g>
    <g
       id="flowRoot4184-27"
       style="font-style:normal;font-variant:normal;font-weight:normal;font-stretch:normal;font-size:30px;line-height:125%;font-family:Roboto;-inkscape-font-specification:'Roboto, Normal';text-align:start;letter-spacing:0px;word-spacing:0px;writing-mode:lr-tb;text-anchor:start;fill:#eeeeee;fill-opacity:1;stroke:none;stroke-width:1px;stroke-linecap:butt;stroke-linejoin:miter;stroke-opacity:1"
       transform="translate(247.95584,662.53654)">
      <path
         id="path4242"
         style="font-style:normal;font-variant:normal;font-weight:bold;font-stretch:normal;font-size:27.5px;font-family:monospace;-inkscape-font-specification:'monospace Bold'"
         d="M 7.7329102,94.521686 Q 4.7385254,93.380328 3.6777344,92.131549 2.6169434,90.869342 2.6169434,88.74776 q 0,-2.72583 1.7456054,-4.283447 1.7456055,-1.557617 4.7937012,-1.557617 1.383057,0 2.766113,0.322265 1.383057,0.308838 2.739258,0.926514 l 0,3.867187 q -1.275635,-0.899658 -2.591553,-1.369628 -1.315918,-0.469971 -2.6049801,-0.469971 -1.4367676,0 -2.2021484,0.577392 -0.7653809,0.577393 -0.7653809,1.651612 0,0.832519 0.5505371,1.383056 0.5639648,0.53711 2.3364258,1.195069 l 1.7053225,0.644531 q 2.416992,0.88623 3.558349,2.349854 1.141358,1.463623 1.141358,3.692626 0,3.034667 -1.799317,4.538577 -1.785888,1.49048 -5.4113766,1.49048 -1.4904785,0 -2.9943847,-0.36255 -1.4904786,-0.34912 -2.8869629,-1.04737 l 0,-4.095455 q 1.5844726,1.12793 3.0615234,1.678467 1.4904785,0.550538 2.9406738,0.550538 1.463623,0 2.269287,-0.65796 0.805664,-0.671387 0.805664,-1.866455 0,-0.899658 -0.537109,-1.571045 -0.53711,-0.684814 -1.5576174,-1.074219 L 7.7329102,94.521686 Z" />
      <path
         id="path4244"
         style="font-style:normal;font-variant:normal;font-weight:bold;font-stretch:normal;font-size:27.5px;font-family:monospace;-inkscape-font-specification:'monospace Bold'"
         d="m 26.692871,84.00777 0,4.270019 5.142822,0 0,3.021241 -5.142822,0 0,7.116699 q 0,1.00708 0.483399,1.450195 0.496826,0.429686 1.638183,0.429686 l 3.02124,0 0,3.02124 -3.303222,0 q -3.383789,0 -4.578858,-1.07422 -1.195068,-1.08764 -1.195068,-4.014889 l 0,-6.928711 -3.840332,0 0,-3.021241 3.840332,0 0,-4.270019 3.934326,0 z" />
      <path
         id="path4246"
         style="font-style:normal;font-variant:normal;font-weight:bold;font-stretch:normal;font-size:27.5px;font-family:monospace;-inkscape-font-specification:'monospace Bold'"
         d="m 42.242187,91.111041 q -1.409912,0 -2.215576,1.24878 -0.805664,1.235351 -0.805664,3.450927 0,2.215577 0.805664,3.464356 0.805664,1.235356 2.215576,1.235356 1.42334,0 2.229004,-1.235356 0.805664,-1.248779 0.805664,-3.464356 0,-2.215576 -0.805664,-3.450927 -0.805664,-1.24878 -2.229004,-1.24878 z m -6.955566,4.699707 q 0,-3.638916 1.879883,-5.760498 1.89331,-2.135009 5.075683,-2.135009 3.195801,0 5.075684,2.135009 1.893311,2.121582 1.893311,5.760498 0,3.638916 -1.893311,5.773922 -1.879883,2.12159 -5.075684,2.12159 -3.182373,0 -5.075683,-2.12159 -1.879883,-2.135006 -1.879883,-5.773922 z" />
      <path
         id="path4248"
         style="font-style:normal;font-variant:normal;font-weight:bold;font-stretch:normal;font-size:27.5px;font-family:monospace;-inkscape-font-specification:'monospace Bold'"
         d="m 64.760498,102.55147 q -0.993652,0.57739 -2.13501,0.85938 -1.141357,0.29541 -2.457275,0.29541 -3.477783,0 -5.438233,-2.09473 -1.960449,-2.094727 -1.960449,-5.800782 0,-3.719482 1.973877,-5.814209 1.973877,-2.108154 5.45166,-2.108154 1.208496,0 2.322998,0.281983 1.12793,0.281982 2.242432,0.872802 l 0,3.598633 q -0.859375,-0.738525 -1.893311,-1.12793 -1.020507,-0.402832 -2.121582,-0.402832 -1.920166,0 -2.954101,1.221924 -1.033936,1.221924 -1.033936,3.477783 0,2.25586 1.033936,3.464356 1.033935,1.208496 2.954101,1.208496 1.141358,0 2.13501,-0.37598 0.993653,-0.389401 1.879883,-1.168209 l 0,3.612059 z" />
      <path
         id="path4250"
         style="font-style:normal;font-variant:normal;font-weight:bold;font-stretch:normal;font-size:27.5px;font-family:monospace;-inkscape-font-specification:'monospace Bold'"
         d="m 69.393066,82.423297 3.934327,0 0,10.970459 4.726562,-5.115967 4.766846,0 -5.69336,5.612793 6.015625,9.426268 -4.350586,0 -4.122314,-7.036131 -1.342773,1.289063 0,5.747068 -3.934327,0 0,-20.893553 z" />
      <path
         id="path4252"
         style="font-style:normal;font-variant:normal;font-weight:bold;font-stretch:normal;font-size:27.5px;font-family:monospace;-inkscape-font-specification:'monospace Bold'"
         d="m 93.146729,104.94161 q -0.792237,2.12158 -1.906739,3.08838 -1.101074,0.98022 -2.685547,0.98022 l -3.249511,0 0,-2.99438 1.5979,0 q 1.208496,0 1.772461,-0.41626 0.563965,-0.40284 1.141357,-1.89331 l 0.295411,-0.80567 -5.720215,-14.622801 4.135742,0 3.4375,9.761963 3.289795,-9.761963 4.135742,0 -6.243896,16.663821 z" />
      <path
         id="path4254"
         style="font-style:normal;font-variant:normal;font-weight:bold;font-stretch:normal;font-size:27.5px;font-family:monospace;-inkscape-font-specification:'monospace Bold'"
         d="m 109.54199,96.253864 q -2.20215,0 -3.07495,0.563964 -0.8728,0.563965 -0.8728,1.933594 0,1.020508 0.60425,1.624758 0.60424,0.60425 1.63818,0.60425 1.55762,0 2.41699,-1.168217 0.85938,-1.18164 0.85938,-3.289795 l 0,-0.268554 -1.57105,0 z m 5.47852,-1.517334 0,8.58032 -3.90747,0 0,-1.67846 q -0.71167,0.99365 -1.82617,1.53076 -1.11451,0.53711 -2.45728,0.53711 -2.5647,0 -4.00146,-1.3562 -1.42334,-1.35621 -1.42334,-3.786626 0,-2.631836 1.70532,-3.880615 1.70532,-1.262207 5.2771,-1.262207 l 2.72583,0 0,-0.657959 q 0,-0.953369 -0.69825,-1.436768 -0.68481,-0.496826 -2.02758,-0.496826 -1.40992,0 -2.73926,0.362549 -1.31592,0.349121 -2.75269,1.127929 l 0,-3.356933 q 1.30249,-0.537109 2.64527,-0.792236 1.34277,-0.255127 2.84668,-0.255127 3.66577,0 5.14282,1.490478 1.49048,1.490479 1.49048,5.330811 z" />
      <path
         id="path4256"
         style="font-style:normal;font-variant:normal;font-weight:bold;font-stretch:normal;font-size:27.5px;font-family:monospace;-inkscape-font-specification:'monospace Bold'"
         d="m 132.14087,92.426959 q -0.64453,-0.59082 -1.51733,-0.88623 -0.85938,-0.29541 -1.89332,-0.29541 -1.24877,0 -2.18872,0.443115 -0.92651,0.429687 -1.43676,1.262207 -0.32227,0.510254 -0.45655,1.235352 -0.12085,0.725097 -0.12085,2.202148 l 0,6.928709 -3.93432,0 0,-15.039061 3.93432,0 0,2.336426 q 0.5774,-1.289062 1.77246,-1.987304 1.19507,-0.71167 2.79297,-0.71167 0.80567,0 1.57105,0.201416 0.77881,0.187988 1.47705,0.563964 l 0,3.746338 z" />
      <path
         id="path4258"
         style="font-style:normal;font-variant:normal;font-weight:bold;font-stretch:normal;font-size:27.5px;font-family:monospace;-inkscape-font-specification:'monospace Bold'"
         d="m 143.84985,90.412799 0,-7.989502 3.9209,0 0,20.893553 -3.9209,0 0,-2.229 q -0.6311,1.30249 -1.63818,1.96045 -0.99365,0.65796 -2.34985,0.65796 -2.57813,0 -4.00147,-2.06787 -1.42334,-2.067876 -1.42334,-5.827642 0,-3.813476 1.43677,-5.854492 1.45019,-2.041015 4.12231,-2.041015 1.2085,0 2.16187,0.631103 0.9668,0.617676 1.69189,1.866455 z m -5.47851,5.424805 q 0,2.175293 0.7251,3.410644 0.72509,1.235352 2.00073,1.235352 1.27563,0 2.01416,-1.235352 0.73852,-1.235351 0.73852,-3.410644 0,-2.175293 -0.73852,-3.410645 -0.73853,-1.235351 -2.01416,-1.235351 -1.27564,0 -2.00073,1.235351 -0.7251,1.235352 -0.7251,3.410645 z" />
      <path
         id="path4260"
         style="font-style:normal;font-variant:normal;font-weight:bold;font-stretch:normal;font-size:27.5px;font-family:monospace;-inkscape-font-specification:'monospace Bold'"
         d="m 173.1626,94.521686 q -2.99439,-1.141358 -4.05518,-2.390137 -1.06079,-1.262207 -1.06079,-3.383789 0,-2.72583 1.74561,-4.283447 1.7456,-1.557617 4.7937,-1.557617 1.38305,0 2.76611,0.322265 1.38306,0.308838 2.73926,0.926514 l 0,3.867187 q -1.27564,-0.899658 -2.59155,-1.369628 -1.31592,-0.469971 -2.60498,-0.469971 -1.43677,0 -2.20215,0.577392 -0.76538,0.577393 -0.76538,1.651612 0,0.832519 0.55053,1.383056 0.56397,0.53711 2.33643,1.195069 l 1.70532,0.644531 q 2.41699,0.88623 3.55835,2.349854 1.14136,1.463623 1.14136,3.692626 0,3.034667 -1.79932,4.538577 -1.78589,1.49048 -5.41138,1.49048 -1.49047,0 -2.99438,-0.36255 -1.49048,-0.34912 -2.88696,-1.04737 l 0,-4.095455 q 1.58447,1.12793 3.06152,1.678467 1.49048,0.550538 2.94067,0.550538 1.46363,0 2.26929,-0.65796 0.80567,-0.671387 0.80567,-1.866455 0,-0.899658 -0.53711,-1.571045 -0.53711,-0.684814 -1.55762,-1.074219 l -1.94702,-0.738525 z" />
      <path
         id="path4262"
         style="font-style:normal;font-variant:normal;font-weight:bold;font-stretch:normal;font-size:27.5px;font-family:monospace;-inkscape-font-specification:'monospace Bold'"
         d="m 188.79248,101.19527 0,7.8418 -3.9209,0 0,-20.759281 3.9209,0 0,2.25586 q 0.61768,-1.30249 1.62476,-1.960449 1.00708,-0.657959 2.36328,-0.657959 2.57812,0 4.00146,2.067871 1.42334,2.067871 1.42334,5.827636 0,3.813477 -1.45019,5.854492 -1.43677,2.04102 -4.10889,2.04102 -1.2085,0 -2.17529,-0.61768 -0.95337,-0.6311 -1.67847,-1.89331 z m 5.47852,-5.411377 q 0,-2.175293 -0.7251,-3.410645 -0.7251,-1.235351 -2.00073,-1.235351 -1.27564,0 -2.01416,1.235351 -0.73853,1.235352 -0.73853,3.410645 0,2.175293 0.73853,3.410644 0.73852,1.235353 2.01416,1.235353 1.27563,0 2.00073,-1.235353 0.7251,-1.235351 0.7251,-3.410644 z" />
      <path
         id="path4265"
         style="font-style:normal;font-variant:normal;font-weight:bold;font-stretch:normal;font-size:27.5px;font-family:monospace;-inkscape-font-specification:'monospace Bold'"
         d="m 201.54883,98.066608 0,-9.788819 3.93432,0 0,9.184571 q 0,1.624756 0.45655,2.322998 0.45654,0.698242 1.51733,0.698242 1.06079,0 1.65161,-0.939941 0.60425,-0.939942 0.60425,-2.631836 l 0,-8.634034 3.93433,0 0,15.039061 -3.93433,0 0,-2.229 q -0.41626,1.24878 -1.42334,1.93359 -0.99365,0.68482 -2.40356,0.68482 -2.14844,0 -3.24952,-1.42334 -1.08764,-1.42334 -1.08764,-4.216312 z" />
      <path
         id="path4267"
         style="font-style:normal;font-variant:normal;font-weight:bold;font-stretch:normal;font-size:27.5px;font-family:monospace;-inkscape-font-specification:'monospace Bold'"
         d="m 231.39868,92.426959 q -0.64453,-0.59082 -1.51733,-0.88623 -0.85938,-0.29541 -1.89331,-0.29541 -1.24878,0 -2.18872,0.443115 -0.92652,0.429687 -1.43677,1.262207 -0.32227,0.510254 -0.45654,1.235352 -0.12085,0.725097 -0.12085,2.202148 l 0,6.928709 -3.93433,0 0,-15.039061 3.93433,0 0,2.336426 q 0.57739,-1.289062 1.77246,-1.987304 1.19507,-0.71167 2.79297,-0.71167 0.80566,0 1.57104,0.201416 0.77881,0.187988 1.47705,0.563964 l 0,3.746338 z" />
    </g>
    <g
       id="flowRoot4184-3"
       style="font-style:normal;font-variant:normal;font-weight:normal;font-stretch:normal;font-size:30px;line-height:125%;font-family:Roboto;-inkscape-font-specification:'Roboto, Normal';text-align:start;letter-spacing:0px;word-spacing:0px;writing-mode:lr-tb;text-anchor:start;fill:#eeeeee;fill-opacity:1;stroke:none;stroke-width:1px;stroke-linecap:butt;stroke-linejoin:miter;stroke-opacity:1"
       transform="translate(238.23052,715.58375)">
      <path
         id="path4270"
         style="font-style:normal;font-variant:normal;font-weight:bold;font-stretch:normal;font-size:27.5px;font-family:monospace;-inkscape-font-specification:'monospace Bold'"
         d="m 12.59375,99.691364 0,-3.826905 -2.7124023,0 0,-3.330078 6.1767573,0 0,9.184569 q -1.141357,0.98023 -2.524414,1.49048 -1.369628,0.49683 -2.940673,0.49683 -3.8940434,0 -6.0156254,-2.69898 -2.1215821,-2.712401 -2.1215821,-7.69409 0,-5.062256 2.1350098,-7.734375 2.1484375,-2.672119 6.1901857,-2.672119 1.208496,0 2.376709,0.349121 1.168213,0.335693 2.188721,0.980224 l 0,4.39087 q -0.83252,-1.074219 -1.920166,-1.611329 -1.074219,-0.550537 -2.363282,-0.550537 -2.2558591,0 -3.370361,1.705323 -1.114502,1.691894 -1.114502,5.142822 0,3.343506 1.0742187,5.089111 1.0742188,1.745609 3.1286623,1.745609 0.617676,0 1.074219,-0.10743 0.456543,-0.120845 0.738525,-0.349116 z" />
      <path
         id="path4272"
         style="font-style:normal;font-variant:normal;font-weight:bold;font-stretch:normal;font-size:27.5px;font-family:monospace;-inkscape-font-specification:'monospace Bold'"
         d="m 20.395264,88.277789 7.788086,0 0,12.017821 4.887695,0 0,3.02124 -13.723145,0 0,-3.02124 4.901123,0 0,-8.99658 -3.853759,0 0,-3.021241 z m 3.853759,-7.318115 3.934327,0 0,4.592285 -3.934327,0 0,-4.592285 z" />
      <path
         id="path4274"
         style="font-style:normal;font-variant:normal;font-weight:bold;font-stretch:normal;font-size:27.5px;font-family:monospace;-inkscape-font-specification:'monospace Bold'"
         d="m 48.351807,93.554889 0,9.761961 -3.907471,0 0,-9.157713 q 0,-1.638184 -0.469971,-2.336426 -0.456543,-0.71167 -1.503906,-0.71167 -1.060791,0 -1.678467,0.95337 -0.604248,0.953369 -0.604248,2.645263 l 0,8.607176 -3.907471,0 0,-15.039061 3.907471,0 0,2.25586 q 0.41626,-1.248779 1.42334,-1.933594 1.00708,-0.684814 2.43042,-0.684814 2.13501,0 3.222656,1.423339 1.087647,1.409913 1.087647,4.216309 z" />
      <path
         id="path4276"
         style="font-style:normal;font-variant:normal;font-weight:bold;font-stretch:normal;font-size:27.5px;font-family:monospace;-inkscape-font-specification:'monospace Bold'"
         d="m 61.296143,95.555621 q 0,-2.01416 -0.765381,-3.222656 -0.765381,-1.221924 -2.01416,-1.221924 -1.235352,0 -2.000733,1.208496 -0.751953,1.208497 -0.751953,3.236084 0,2.041016 0.751953,3.249512 0.765381,1.208497 2.000733,1.208497 1.248779,0 2.01416,-1.208497 0.765381,-1.221924 0.765381,-3.249512 z m 3.934326,6.633299 q 0,3.61206 -1.638184,5.20996 -1.624756,1.61133 -5.290527,1.61133 -1.235352,0 -2.443848,-0.18799 -1.208496,-0.17456 -2.457275,-0.55053 l 0,-3.61206 q 1.114502,0.61767 2.269287,0.91308 1.154785,0.29541 2.376709,0.29541 1.665039,0 2.457275,-0.79223 0.792237,-0.77881 0.792237,-2.44385 l 0,-1.62476 q -0.577393,1.07422 -1.530762,1.5979 -0.953369,0.52368 -2.322998,0.52368 -2.578125,0 -4.095459,-2.01416 -1.517334,-2.014157 -1.517334,-5.465084 0,-3.571778 1.517334,-5.666504 1.517334,-2.094727 4.068603,-2.094727 1.289063,0 2.296143,0.604248 1.00708,0.604248 1.584473,1.705322 l 0,-1.920166 3.934326,0 0,13.911131 z" />
      <path
         id="path4278"
         style="font-style:normal;font-variant:normal;font-weight:bold;font-stretch:normal;font-size:27.5px;font-family:monospace;-inkscape-font-specification:'monospace Bold'"
         d="m 81.854004,102.57833 q -1.369629,0.56396 -2.792969,0.84594 -1.42334,0.28199 -3.007812,0.28199 -3.773194,0 -5.773926,-2.01416 -1.987305,-2.027592 -1.987305,-5.827641 0,-3.679199 1.920166,-5.814209 1.920166,-2.135009 5.236817,-2.135009 3.343505,0 5.183105,1.987304 1.853027,1.973877 1.853027,5.57251 l 0,1.5979 -10.19165,0 q 0.01343,1.772461 1.047363,2.645264 1.033936,0.872801 3.088379,0.872801 1.356201,0 2.672119,-0.3894 1.315918,-0.389407 2.752686,-1.235354 l 0,3.612064 z M 78.523926,94.118854 Q 78.49707,92.561237 77.718262,91.769 q -0.765381,-0.805664 -2.269287,-0.805664 -1.356202,0 -2.161866,0.83252 -0.805664,0.819092 -0.953369,2.336426 l 6.190186,-0.01343 z" />
      <path
         id="path4280"
         style="font-style:normal;font-variant:normal;font-weight:bold;font-stretch:normal;font-size:27.5px;font-family:monospace;-inkscape-font-specification:'monospace Bold'"
         d="m 99.054932,92.426959 q -0.644532,-0.59082 -1.517334,-0.88623 -0.859375,-0.29541 -1.893311,-0.29541 -1.248779,0 -2.188721,0.443115 -0.926513,0.429687 -1.436767,1.262207 -0.322266,0.510254 -0.456543,1.235352 -0.12085,0.725097 -0.12085,2.202148 l 0,6.928709 -3.934326,0 0,-15.039061 3.934326,0 0,2.336426 q 0.577393,-1.289062 1.772461,-1.987304 1.195069,-0.71167 2.792969,-0.71167 0.805664,0 1.571045,0.201416 0.778808,0.187988 1.477051,0.563964 l 0,3.746338 z" />
      <path
         id="path4282"
         style="font-style:normal;font-variant:normal;font-weight:bold;font-stretch:normal;font-size:27.5px;font-family:monospace;-inkscape-font-specification:'monospace Bold'"
         d="m 109.54199,96.253864 q -2.20215,0 -3.07495,0.563964 -0.8728,0.563965 -0.8728,1.933594 0,1.020508 0.60425,1.624758 0.60424,0.60425 1.63818,0.60425 1.55762,0 2.41699,-1.168217 0.85938,-1.18164 0.85938,-3.289795 l 0,-0.268554 -1.57105,0 z m 5.47852,-1.517334 0,8.58032 -3.90747,0 0,-1.67846 q -0.71167,0.99365 -1.82617,1.53076 -1.11451,0.53711 -2.45728,0.53711 -2.5647,0 -4.00146,-1.3562 -1.42334,-1.35621 -1.42334,-3.786626 0,-2.631836 1.70532,-3.880615 1.70532,-1.262207 5.2771,-1.262207 l 2.72583,0 0,-0.657959 q 0,-0.953369 -0.69825,-1.436768 -0.68481,-0.496826 -2.02758,-0.496826 -1.40992,0 -2.73926,0.362549 -1.31592,0.349121 -2.75269,1.127929 l 0,-3.356933 q 1.30249,-0.537109 2.64527,-0.792236 1.34277,-0.255127 2.84668,-0.255127 3.66577,0 5.14282,1.490478 1.49048,1.490479 1.49048,5.330811 z" />
    </g>
    <g
       id="flowRoot4184-29"
       style="font-style:normal;font-variant:normal;font-weight:bold;font-stretch:normal;font-size:27.5px;line-height:125%;font-family:monospace;-inkscape-font-specification:'monospace Bold';text-align:start;letter-spacing:0px;word-spacing:0px;writing-mode:lr-tb;text-anchor:start;fill:#eeeeee;fill-opacity:1;stroke:none;stroke-width:1px;stroke-linecap:butt;stroke-linejoin:miter;stroke-opacity:1"
       transform="translate(51.028809,933.96143)">
      <path
         id="path4285"
         style=""
         d="m 2.0395508,83.269245 4.7265625,0 2.3901367,8.795166 2.376709,-8.795166 4.753418,0 0,20.047605 -3.410645,0 0,-16.059568 -2.121582,8.76831 -3.1555172,0 -2.1484375,-8.76831 0,16.059568 -3.4106445,0 0,-20.047605 z" />
      <path
         id="path4287"
         style=""
         d="m 25.699219,91.111041 q -1.409912,0 -2.215576,1.24878 -0.805664,1.235351 -0.805664,3.450927 0,2.215577 0.805664,3.464356 0.805664,1.235356 2.215576,1.235356 1.42334,0 2.229004,-1.235356 0.805664,-1.248779 0.805664,-3.464356 0,-2.215576 -0.805664,-3.450927 -0.805664,-1.24878 -2.229004,-1.24878 z m -6.955567,4.699707 q 0,-3.638916 1.879883,-5.760498 1.893311,-2.135009 5.075684,-2.135009 3.195801,0 5.075683,2.135009 1.893311,2.121582 1.893311,5.760498 0,3.638916 -1.893311,5.773922 -1.879882,2.12159 -5.075683,2.12159 -3.182373,0 -5.075684,-2.12159 -1.879883,-2.135006 -1.879883,-5.773922 z" />
      <path
         id="path4289"
         style=""
         d="m 36.119141,98.066608 0,-9.788819 3.934326,0 0,9.184571 q 0,1.624756 0.456543,2.322998 0.456543,0.698242 1.517334,0.698242 1.060791,0 1.651611,-0.939941 0.604248,-0.939942 0.604248,-2.631836 l 0,-8.634034 3.934326,0 0,15.039061 -3.934326,0 0,-2.229 q -0.41626,1.24878 -1.42334,1.93359 -0.993652,0.68482 -2.403564,0.68482 -2.148438,0 -3.249512,-1.42334 -1.087646,-1.42334 -1.087646,-4.216312 z" />
      <path
         id="path4291"
         style=""
         d="m 64.894775,93.554889 0,9.761961 -3.90747,0 0,-9.157713 q 0,-1.638184 -0.469971,-2.336426 -0.456543,-0.71167 -1.503906,-0.71167 -1.060791,0 -1.678467,0.95337 -0.604248,0.953369 -0.604248,2.645263 l 0,8.607176 -3.907471,0 0,-15.039061 3.907471,0 0,2.25586 q 0.41626,-1.248779 1.42334,-1.933594 1.00708,-0.684814 2.43042,-0.684814 2.135009,0 3.222656,1.423339 1.087646,1.409913 1.087646,4.216309 z" />
      <path
         id="path4293"
         style=""
         d="m 76.321777,84.00777 0,4.270019 5.142823,0 0,3.021241 -5.142823,0 0,7.116699 q 0,1.00708 0.483399,1.450195 0.496826,0.429686 1.638183,0.429686 l 3.021241,0 0,3.02124 -3.303223,0 q -3.383789,0 -4.578857,-1.07422 -1.195069,-1.08764 -1.195069,-4.014889 l 0,-6.928711 -3.840332,0 0,-3.021241 3.840332,0 0,-4.270019 3.934326,0 z" />
      <path
         id="path4295"
         style=""
         d="m 101.29736,83.269245 4.72657,0 2.39013,8.795166 2.37671,-8.795166 4.75342,0 0,20.047605 -3.41065,0 0,-16.059568 -2.12158,8.76831 -3.15551,0 -2.14844,-8.76831 0,16.059568 -3.41065,0 0,-20.047605 z" />
      <path
         id="path4297"
         style=""
         d="m 124.95703,91.111041 q -1.40991,0 -2.21557,1.24878 -0.80567,1.235351 -0.80567,3.450927 0,2.215577 0.80567,3.464356 0.80566,1.235356 2.21557,1.235356 1.42334,0 2.22901,-1.235356 0.80566,-1.248779 0.80566,-3.464356 0,-2.215576 -0.80566,-3.450927 -0.80567,-1.24878 -2.22901,-1.24878 z m -6.95557,4.699707 q 0,-3.638916 1.87989,-5.760498 1.89331,-2.135009 5.07568,-2.135009 3.1958,0 5.07568,2.135009 1.89332,2.121582 1.89332,5.760498 0,3.638916 -1.89332,5.773922 -1.87988,2.12159 -5.07568,2.12159 -3.18237,0 -5.07568,-2.12159 -1.87989,-2.135006 -1.87989,-5.773922 z" />
      <path
         id="path4299"
         style=""
         d="m 148.68384,92.426959 q -0.64453,-0.59082 -1.51734,-0.88623 -0.85937,-0.29541 -1.89331,-0.29541 -1.24878,0 -2.18872,0.443115 -0.92651,0.429687 -1.43676,1.262207 -0.32227,0.510254 -0.45655,1.235352 -0.12085,0.725097 -0.12085,2.202148 l 0,6.928709 -3.93432,0 0,-15.039061 3.93432,0 0,2.336426 q 0.5774,-1.289062 1.77246,-1.987304 1.19507,-0.71167 2.79297,-0.71167 0.80567,0 1.57105,0.201416 0.77881,0.187988 1.47705,0.563964 l 0,3.746338 z" />
      <path
         id="path4301"
         style=""
         d="m 160.55396,95.555621 q 0,-2.01416 -0.76539,-3.222656 -0.76538,-1.221924 -2.01416,-1.221924 -1.23535,0 -2.00073,1.208496 -0.75195,1.208497 -0.75195,3.236084 0,2.041016 0.75195,3.249512 0.76538,1.208497 2.00073,1.208497 1.24878,0 2.01416,-1.208497 0.76539,-1.221924 0.76539,-3.249512 z m 3.93432,6.633299 q 0,3.61206 -1.63818,5.20996 -1.62476,1.61133 -5.29053,1.61133 -1.23535,0 -2.44385,-0.18799 -1.20849,-0.17456 -2.45727,-0.55053 l 0,-3.61206 q 1.1145,0.61767 2.26928,0.91308 1.15479,0.29541 2.37671,0.29541 1.66504,0 2.45728,-0.79223 0.79224,-0.77881 0.79224,-2.44385 l 0,-1.62476 q -0.5774,1.07422 -1.53077,1.5979 -0.95337,0.52368 -2.32299,0.52368 -2.57813,0 -4.09546,-2.01416 -1.51734,-2.014157 -1.51734,-5.465084 0,-3.571778 1.51734,-5.666504 1.51733,-2.094727 4.0686,-2.094727 1.28906,0 2.29614,0.604248 1.00708,0.604248 1.58448,1.705322 l 0,-1.920166 3.93432,0 0,13.911131 z" />
      <path
         id="path4303"
         style=""
         d="m 175.71387,96.253864 q -2.20215,0 -3.07495,0.563964 -0.87281,0.563965 -0.87281,1.933594 0,1.020508 0.60425,1.624758 0.60425,0.60425 1.63818,0.60425 1.55762,0 2.417,-1.168217 0.85937,-1.18164 0.85937,-3.289795 l 0,-0.268554 -1.57104,0 z m 5.47851,-1.517334 0,8.58032 -3.90747,0 0,-1.67846 q -0.71167,0.99365 -1.82617,1.53076 -1.1145,0.53711 -2.45728,0.53711 -2.56469,0 -4.00146,-1.3562 -1.42334,-1.35621 -1.42334,-3.786626 0,-2.631836 1.70532,-3.880615 1.70532,-1.262207 5.2771,-1.262207 l 2.72583,0 0,-0.657959 q 0,-0.953369 -0.69824,-1.436768 -0.68481,-0.496826 -2.02759,-0.496826 -1.40991,0 -2.73926,0.362549 -1.31591,0.349121 -2.75268,1.127929 l 0,-3.356933 q 1.30249,-0.537109 2.64526,-0.792236 1.34278,-0.255127 2.84668,-0.255127 3.66577,0 5.14282,1.490478 1.49048,1.490479 1.49048,5.330811 z" />
      <path
         id="path4305"
         style=""
         d="m 197.23853,93.554889 0,9.761961 -3.90748,0 0,-9.157713 q 0,-1.638184 -0.46997,-2.336426 -0.45654,-0.71167 -1.5039,-0.71167 -1.06079,0 -1.67847,0.95337 -0.60425,0.953369 -0.60425,2.645263 l 0,8.607176 -3.90747,0 0,-15.039061 3.90747,0 0,2.25586 q 0.41626,-1.248779 1.42334,-1.933594 1.00708,-0.684814 2.43042,-0.684814 2.13501,0 3.22266,1.423339 1.08765,1.409913 1.08765,4.216309 z" />
    </g>
    <path
       id="path4264"
       d="m 234.43776,589.11333 8.75235,0 1.8755,9.37751 -8.75234,3.75101 -2.50068,-9.5338 z"
       style="fill:#fd8c1b;fill-opacity:1;fill-rule:evenodd;stroke:none;stroke-width:1px;stroke-linecap:butt;stroke-linejoin:miter;stroke-opacity:1" />
  </g>
</svg>
