<?xml version="1.0" encoding="UTF-8" standalone="no"?>
<svg
   xmlns:dc="http://purl.org/dc/elements/1.1/"
   xmlns:cc="http://creativecommons.org/ns#"
   xmlns:rdf="http://www.w3.org/1999/02/22-rdf-syntax-ns#"
   xmlns:svg="http://www.w3.org/2000/svg"
   xmlns="http://www.w3.org/2000/svg"
   id="svg2"
   viewBox="0 0 599.99999 799.99999"
   height="800"
   width="600"
   version="1.1">
  <defs
     id="defs4" />
  <metadata
     id="metadata7">
    <rdf:RDF>
      <cc:Work
         rdf:about="">
        <dc:format>image/svg+xml</dc:format>
        <dc:type
           rdf:resource="http://purl.org/dc/dcmitype/StillImage" />
        <dc:title></dc:title>
      </cc:Work>
    </rdf:RDF>
  </metadata>
  <path
     style="fill:none;stroke:#34b8b8;stroke-width:10;stroke-linecap:butt;stroke-linejoin:miter;stroke-miterlimit:4;stroke-opacity:1;stroke-dasharray:none"
     id="path4149"
     d="m 331.83511,803.09435 0,-22.7923 -12.12183,-17.6777 6.06092,-12.1218 -15.15229,-25.25384 -8.5863,23.23354 -4.04061,20.7081 -12.12183,21.7183 -19.69797,-19.1929 -13.63706,-32.82998 -29.29443,-14.64721 -7.57614,-19.1929 7.07107,-26.76904 -8.08122,-18.68782 -21.21321,-9.59645 -2.0203,-14.14214 14.14213,-15.65736 0,-13.63706 -13.63706,-21.21321 17.67767,-13.63706 -1.01015,-17.67766 -14.64721,-19.1929 8.5863,-10.60661 -10.60661,-44.95178 -5.55584,-44.95179 8.5863,-32.82996 3.03046,-32.32488 14.14213,-21.71828 -0.50507,-23.23351 17.17259,-22.72843 0.50508,-26.76904 -10.6066,-28.28428 3.03045,-22.72843 25.75889,-38.89087 50.00255,-34.34519 214.66026,-156.07046" />
  <path
     style="fill:none;stroke:#34b8b8;stroke-width:10;stroke-linecap:butt;stroke-linejoin:miter;stroke-miterlimit:4;stroke-opacity:1;stroke-dasharray:none"
     id="path4151"
     d="m 541.12574,805.33625 7.38709,-29.5799 1.01015,-25.2538 6.06092,-46.46704 -8.08122,-19.1929 -1.01015,-48.48732 -14.14214,-17.1726 2.02031,-22.22335 -10.10153,-16.16244 6.06092,-26.26397 24.24366,-3.03046 32.32488,11.11168 11.11168,-8.08122 -12.12183,-39.39595 10.10152,-36.36549 12.12183,-15.15229 -5.05076,-43.43656 -8.08122,-23.23351 10.10152,-31.31472 16.16245,-12.12184" />
  <path
     style="fill:#34b8b8;fill-opacity:1;fill-rule:evenodd;stroke:none"
     id="path4155"
     d="m 569,-1 -17,0.5 -4.5,9 -5,14 -10.5,-2 -6,12.5 7.5,2.5 13,2 8.5,5.5 -5,10.5 14,2.5 17,1.5 2,-10 17.5,-10 -7,-17 -7,-5 -16,-9.5 z M 486.75,38.75 459.5,50.5 449.5,68 435,87 l 9,12.5 18.5,-2 6,15.5 12,14.5 24,5.5 4.5,7 29.5,0 5.5,-15.5 15,-1.5 -9,8.5 5.5,7 2,24.5 10.5,9.5 12.5,-3 13.5,4 10.46352,10.7897 1,-90.637339 L 595,96.5 586.5,110.5 582,101 572,99 575.5,89 557.5,62.5 543,57 535,65.5 528,57 509.5,41 z M 603,60.5 584.32812,61.810547 589.5,71.5 586,83 l 8,7 8.32618,-9.7897 z m -13.98047,117.95312 -15.55664,1.41407 -14.84766,2.12109 -19.80078,2.1211 -1.41406,16.9707 -9.19141,1.41406 -16.9707,13.43555 -22.62695,3.53515 -20.50586,-5.65625 -2.12305,32.52735 6.36524,16.9707 26.86914,11.3125 -15.55664,3.53516 -5.65625,17.67773 -2.1211,15.55664 30.40625,2.1211 0.70703,14.84961 4.24219,19.09179 14.84961,14.14258 -0.70703,32.52734 7.77734,19.0918 16.26368,4.94922 11.31445,-7.77734 8.48437,-11.31446 14.84961,-16.9707 -4.94922,-19.0918 8.48438,-9.1914 14.49675,4.24086 3.0931,-24.83259 -8.4857,-0.18106 -6.98306,-4.68424 -6.36328,-13.43555 -16.9707,-11.3125 -2.1211,5.65625 -9.19336,-0.70703 -6.36328,-13.43555 23.33399,-0.70703 -2.1211,-14.84766 -9.1914,-19.80078 6.36328,-12.72656 -3.53516,-22.62695 -10.60742,-6.36524 17.67774,1.41406 2.12109,22.62696 18.38476,6.36523 14.23047,1.32618 -0.79492,-49.41016 z" />
  <path
     style="fill:#fd8c1b;fill-opacity:1;fill-rule:evenodd;stroke:none"
     id="path4174"
     d="m 13.753682,397.39222 10.002678,-8.12718 9.377511,11.87818 -10.002678,10.62784 -9.377511,-4.37617 z" />
  <path
     style="fill:#fd8c1b;fill-opacity:1;fill-rule:evenodd;stroke:none"
     id="path4178"
     d="m 163.07056,520.1574 -0.0888,-18.79168 10.21909,-14.24894 17.28108,-9.92231 16.20581,-5.80043 14.84655,0.12264 18.46571,8.48331 10.17921,4.58223 -0.14241,14.01701 -7.42721,17.66783 -10.80374,12.42336 -8.65321,1.31224 -10.12249,7.38585 -26.51565,-1.56456 -12.47976,-16.45209 z" />
  <path
     style="fill:#fd8c1b;fill-opacity:1;fill-rule:evenodd;stroke:none"
     id="path4180"
     d="m 209.43107,745.61044 10.00268,-4.37617 5.00134,8.12718 -10.62785,5.0013 z" />
  <path
     style="fill:#fd8c1b;fill-opacity:1;fill-rule:evenodd;stroke:none"
     id="path4182"
     d="m 181.5208,546.36941 5.35408,-11.57702 26.0857,1.1721 13.23468,12.06272 2.28256,9.30713 -7.10939,13.74587 -13.9692,10.21824 -17.195,-0.89288 -9.3001,-18.37138 z" />
  <path
     style="fill:#fd8c1b;fill-opacity:1;fill-rule:evenodd;stroke:none"
     id="path4264"
     d="m 225.76033,313.42424 5.04331,11.56253 13.41971,4.00716 17.34436,9.98482 -3.16974,20.00199 -12.4764,14.51482 -14.55221,5.937 -21.91915,1.79351 -12.87128,6.20059 1.20912,-32.70976 9.38183,-5.70204 -7.9753,-5.21316 -4.10764,-13.14532 -5.76587,-5.92821 4.87875,-9.47641 9.36464,2.73871 7.3371,-5.87837 z" />
  <path
     style="fill:#fd8c1b;fill-opacity:1;fill-rule:evenodd;stroke:none"
     id="path4277"
     d="m 146.72466,77.69042 1.41421,38.89088 10.25305,26.5165 2.47487,31.1127 c 0,0 8.83884,10.96015 9.19239,12.72792 0.35355,1.76777 14.49569,-1.76777 14.49569,-1.76777 l 9.89949,-13.08147 31.81981,-3.53554 18.73833,-12.37436 6.36396,-14.14214 31.1127,-1.06066 1.41421,-22.62742 2.12132,-17.67767 -6.0104,-7.77817 -1.41422,-15.55635 -19.09188,-12.72792 -16.61701,-15.55635 -9.8995,-8.13173 c 0,0 -15.55634,1.76777 -15.9099,3.88909 -0.35355,2.12132 -13.78858,22.27386 -13.78858,22.27386 l -16.26346,6.71751 -7.77817,8.13173 -11.31371,-1.76776 z" />
  <g
     style="font-style:normal;font-variant:normal;font-weight:normal;font-stretch:normal;font-size:30px;line-height:125%;font-family:Roboto;-inkscape-font-specification:'Roboto, Normal';text-align:start;letter-spacing:0px;word-spacing:0px;writing-mode:lr-tb;text-anchor:start;fill:#eeeeee;fill-opacity:1;stroke:none"
     id="flowRoot4184-0"
     transform="translate(275.73994,260.80812)">
    <path
       style="font-style:normal;font-variant:normal;font-weight:bold;font-stretch:normal;font-size:27.5px;font-family:monospace;-inkscape-font-specification:'monospace Bold'"
       id="path4227"
       d="m 6.3901367,94.212848 0,5.935062 2.631836,0 q 1.8933103,0 2.6452633,-0.644535 0.765381,-0.644531 0.765381,-2.242431 0,-1.624756 -0.792236,-2.336426 -0.792236,-0.71167 -2.6184083,-0.71167 l -2.631836,0 z m 0,-7.814941 0,4.659423 2.631836,0 q 1.5039063,0 2.1350093,-0.537109 0.644532,-0.537109 0.644532,-1.772461 0,-1.235351 -0.657959,-1.785889 -0.644532,-0.563964 -2.1215823,-0.563964 l -2.631836,0 z m -3.8269043,-3.155518 6.4587403,0 q 3.3435063,0 5.0219723,1.275635 1.691895,1.262207 1.691895,3.786621 0,1.933594 -0.993652,3.02124 -0.993653,1.087647 -2.913819,1.262207 2.296143,0.228272 3.450928,1.54419 1.168213,1.315918 1.168213,3.679199 0,2.900389 -1.745606,4.202879 -1.745605,1.30249 -5.6799313,1.30249 l -6.4587403,0 0,-20.074461 z" />
    <path
       style="font-style:normal;font-variant:normal;font-weight:bold;font-stretch:normal;font-size:27.5px;font-family:monospace;-inkscape-font-specification:'monospace Bold'"
       id="path4229"
       d="m 32.225098,102.57833 q -1.369629,0.56396 -2.792969,0.84594 -1.42334,0.28199 -3.007813,0.28199 -3.773193,0 -5.773925,-2.01416 -1.987305,-2.027592 -1.987305,-5.827641 0,-3.679199 1.920166,-5.814209 1.920166,-2.135009 5.236816,-2.135009 3.343506,0 5.183106,1.987304 1.853027,1.973877 1.853027,5.57251 l 0,1.5979 -10.19165,0 q 0.01343,1.772461 1.047363,2.645264 1.033936,0.872801 3.088379,0.872801 1.356201,0 2.672119,-0.3894 1.315918,-0.389407 2.752686,-1.235354 l 0,3.612064 z M 28.89502,94.118854 Q 28.86816,92.561237 28.089355,91.769 q -0.76538,-0.805664 -2.269287,-0.805664 -1.356201,0 -2.161865,0.83252 -0.805664,0.819092 -0.953369,2.336426 l 6.190186,-0.01343 z" />
    <path
       style="font-style:normal;font-variant:normal;font-weight:bold;font-stretch:normal;font-size:27.5px;font-family:monospace;-inkscape-font-specification:'monospace Bold'"
       id="path4231"
       d="m 48.351807,93.554889 0,9.761961 -3.907471,0 0,-9.157713 q 0,-1.638184 -0.469971,-2.336426 -0.456543,-0.71167 -1.503906,-0.71167 -1.060791,0 -1.678467,0.95337 -0.604248,0.953369 -0.604248,2.645263 l 0,8.607176 -3.907471,0 0,-15.039061 3.907471,0 0,2.25586 q 0.41626,-1.248779 1.42334,-1.933594 1.00708,-0.684814 2.43042,-0.684814 2.13501,0 3.222656,1.423339 1.087647,1.409913 1.087647,4.216309 z" />
    <path
       style="font-style:normal;font-variant:normal;font-weight:bold;font-stretch:normal;font-size:27.5px;font-family:monospace;-inkscape-font-specification:'monospace Bold'"
       id="path4233"
       d="m 61.13501,90.412799 0,-7.989502 3.920898,0 0,20.893553 -3.920898,0 0,-2.229 q -0.631104,1.30249 -1.638184,1.96045 -0.993652,0.65796 -2.349853,0.65796 -2.578125,0 -4.001465,-2.06787 -1.42334,-2.067876 -1.42334,-5.827642 0,-3.813476 1.436768,-5.854492 1.450195,-2.041015 4.122314,-2.041015 1.208496,0 2.161865,0.631103 0.966797,0.617676 1.691895,1.866455 z m -5.478516,5.424805 q 0,2.175293 0.725098,3.410644 0.725097,1.235352 2.000732,1.235352 1.275635,0 2.01416,-1.235352 0.738526,-1.235351 0.738526,-3.410644 0,-2.175293 -0.738526,-3.410645 -0.738525,-1.235351 -2.01416,-1.235351 -1.275635,0 -2.000732,1.235351 -0.725098,1.235352 -0.725098,3.410645 z" />
    <path
       style="font-style:normal;font-variant:normal;font-weight:bold;font-stretch:normal;font-size:27.5px;font-family:monospace;-inkscape-font-specification:'monospace Bold'"
       id="path4235"
       d="m 75.328125,91.111041 q -1.409912,0 -2.215576,1.24878 -0.805664,1.235351 -0.805664,3.450927 0,2.215577 0.805664,3.464356 0.805664,1.235356 2.215576,1.235356 1.42334,0 2.229004,-1.235356 0.805664,-1.248779 0.805664,-3.464356 0,-2.215576 -0.805664,-3.450927 -0.805664,-1.24878 -2.229004,-1.24878 z m -6.955566,4.699707 q 0,-3.638916 1.879882,-5.760498 1.893311,-2.135009 5.075684,-2.135009 3.195801,0 5.075684,2.135009 1.89331,2.121582 1.89331,5.760498 0,3.638916 -1.89331,5.773922 -1.879883,2.12159 -5.075684,2.12159 -3.182373,0 -5.075684,-2.12159 -1.879882,-2.135006 -1.879882,-5.773922 z" />
    <path
       style="font-style:normal;font-variant:normal;font-weight:bold;font-stretch:normal;font-size:27.5px;font-family:monospace;-inkscape-font-specification:'monospace Bold'"
       id="path4237"
       d="m 99.054932,92.426959 q -0.644532,-0.59082 -1.517334,-0.88623 -0.859375,-0.29541 -1.893311,-0.29541 -1.248779,0 -2.188721,0.443115 -0.926513,0.429687 -1.436767,1.262207 -0.322266,0.510254 -0.456543,1.235352 -0.12085,0.725097 -0.12085,2.202148 l 0,6.928709 -3.934326,0 0,-15.039061 3.934326,0 0,2.336426 q 0.577393,-1.289062 1.772461,-1.987304 1.195069,-0.71167 2.792969,-0.71167 0.805664,0 1.571045,0.201416 0.778808,0.187988 1.477051,0.563964 l 0,3.746338 z" />
    <path
       style="font-style:normal;font-variant:normal;font-weight:bold;font-stretch:normal;font-size:27.5px;font-family:monospace;-inkscape-font-specification:'monospace Bold'"
       id="path4239"
       d="m 109.54199,96.253864 q -2.20215,0 -3.07495,0.563964 -0.8728,0.563965 -0.8728,1.933594 0,1.020508 0.60425,1.624758 0.60424,0.60425 1.63818,0.60425 1.55762,0 2.41699,-1.168217 0.85938,-1.18164 0.85938,-3.289795 l 0,-0.268554 -1.57105,0 z m 5.47852,-1.517334 0,8.58032 -3.90747,0 0,-1.67846 q -0.71167,0.99365 -1.82617,1.53076 -1.11451,0.53711 -2.45728,0.53711 -2.5647,0 -4.00146,-1.3562 -1.42334,-1.35621 -1.42334,-3.786626 0,-2.631836 1.70532,-3.880615 1.70532,-1.262207 5.2771,-1.262207 l 2.72583,0 0,-0.657959 q 0,-0.953369 -0.69825,-1.436768 -0.68481,-0.496826 -2.02758,-0.496826 -1.40992,0 -2.73926,0.362549 -1.31592,0.349121 -2.75269,1.127929 l 0,-3.356933 q 1.30249,-0.537109 2.64527,-0.792236 1.34277,-0.255127 2.84668,-0.255127 3.66577,0 5.14282,1.490478 1.49048,1.490479 1.49048,5.330811 z" />
  </g>
  <g
     style="font-style:normal;font-variant:normal;font-weight:normal;font-stretch:normal;font-size:30px;line-height:125%;font-family:Roboto;-inkscape-font-specification:'Roboto, Normal';text-align:start;letter-spacing:0px;word-spacing:0px;writing-mode:lr-tb;text-anchor:start;fill:#eeeeee;fill-opacity:1;stroke:none"
     id="flowRoot4184-27"
     transform="translate(254.43986,442.32947)">
    <path
       style="font-style:normal;font-variant:normal;font-weight:bold;font-stretch:normal;font-size:27.5px;font-family:monospace;-inkscape-font-specification:'monospace Bold'"
       id="path4242"
       d="M 7.7329102,94.521686 Q 4.7385254,93.380328 3.6777344,92.131549 2.6169434,90.869342 2.6169434,88.74776 q 0,-2.72583 1.7456054,-4.283447 1.7456055,-1.557617 4.7937012,-1.557617 1.383057,0 2.766113,0.322265 1.383057,0.308838 2.739258,0.926514 l 0,3.867187 q -1.275635,-0.899658 -2.591553,-1.369628 -1.315918,-0.469971 -2.6049801,-0.469971 -1.4367676,0 -2.2021484,0.577392 -0.7653809,0.577393 -0.7653809,1.651612 0,0.832519 0.5505371,1.383056 0.5639648,0.53711 2.3364258,1.195069 l 1.7053225,0.644531 q 2.416992,0.88623 3.558349,2.349854 1.141358,1.463623 1.141358,3.692626 0,3.034667 -1.799317,4.538577 -1.785888,1.49048 -5.4113766,1.49048 -1.4904785,0 -2.9943847,-0.36255 -1.4904786,-0.34912 -2.8869629,-1.04737 l 0,-4.095455 q 1.5844726,1.12793 3.0615234,1.678467 1.4904785,0.550538 2.9406738,0.550538 1.463623,0 2.269287,-0.65796 0.805664,-0.671387 0.805664,-1.866455 0,-0.899658 -0.537109,-1.571045 -0.53711,-0.684814 -1.5576174,-1.074219 L 7.7329102,94.521686 Z" />
    <path
       style="font-style:normal;font-variant:normal;font-weight:bold;font-stretch:normal;font-size:27.5px;font-family:monospace;-inkscape-font-specification:'monospace Bold'"
       id="path4244"
       d="m 26.692871,84.00777 0,4.270019 5.142822,0 0,3.021241 -5.142822,0 0,7.116699 q 0,1.00708 0.483399,1.450195 0.496826,0.429686 1.638183,0.429686 l 3.02124,0 0,3.02124 -3.303222,0 q -3.383789,0 -4.578858,-1.07422 -1.195068,-1.08764 -1.195068,-4.014889 l 0,-6.928711 -3.840332,0 0,-3.021241 3.840332,0 0,-4.270019 3.934326,0 z" />
    <path
       style="font-style:normal;font-variant:normal;font-weight:bold;font-stretch:normal;font-size:27.5px;font-family:monospace;-inkscape-font-specification:'monospace Bold'"
       id="path4246"
       d="m 42.242187,91.111041 q -1.409912,0 -2.215576,1.24878 -0.805664,1.235351 -0.805664,3.450927 0,2.215577 0.805664,3.464356 0.805664,1.235356 2.215576,1.235356 1.42334,0 2.229004,-1.235356 0.805664,-1.248779 0.805664,-3.464356 0,-2.215576 -0.805664,-3.450927 -0.805664,-1.24878 -2.229004,-1.24878 z m -6.955566,4.699707 q 0,-3.638916 1.879883,-5.760498 1.89331,-2.135009 5.075683,-2.135009 3.195801,0 5.075684,2.135009 1.893311,2.121582 1.893311,5.760498 0,3.638916 -1.893311,5.773922 -1.879883,2.12159 -5.075684,2.12159 -3.182373,0 -5.075683,-2.12159 -1.879883,-2.135006 -1.879883,-5.773922 z" />
    <path
       style="font-style:normal;font-variant:normal;font-weight:bold;font-stretch:normal;font-size:27.5px;font-family:monospace;-inkscape-font-specification:'monospace Bold'"
       id="path4248"
       d="m 64.760498,102.55147 q -0.993652,0.57739 -2.13501,0.85938 -1.141357,0.29541 -2.457275,0.29541 -3.477783,0 -5.438233,-2.09473 -1.960449,-2.094727 -1.960449,-5.800782 0,-3.719482 1.973877,-5.814209 1.973877,-2.108154 5.45166,-2.108154 1.208496,0 2.322998,0.281983 1.12793,0.281982 2.242432,0.872802 l 0,3.598633 q -0.859375,-0.738525 -1.893311,-1.12793 -1.020507,-0.402832 -2.121582,-0.402832 -1.920166,0 -2.954101,1.221924 -1.033936,1.221924 -1.033936,3.477783 0,2.25586 1.033936,3.464356 1.033935,1.208496 2.954101,1.208496 1.141358,0 2.13501,-0.37598 0.993653,-0.389401 1.879883,-1.168209 l 0,3.612059 z" />
    <path
       style="font-style:normal;font-variant:normal;font-weight:bold;font-stretch:normal;font-size:27.5px;font-family:monospace;-inkscape-font-specification:'monospace Bold'"
       id="path4250"
       d="m 69.393066,82.423297 3.934327,0 0,10.970459 4.726562,-5.115967 4.766846,0 -5.69336,5.612793 6.015625,9.426268 -4.350586,0 -4.122314,-7.036131 -1.342773,1.289063 0,5.747068 -3.934327,0 0,-20.893553 z" />
    <path
       style="font-style:normal;font-variant:normal;font-weight:bold;font-stretch:normal;font-size:27.5px;font-family:monospace;-inkscape-font-specification:'monospace Bold'"
       id="path4252"
       d="m 93.146729,104.94161 q -0.792237,2.12158 -1.906739,3.08838 -1.101074,0.98022 -2.685547,0.98022 l -3.249511,0 0,-2.99438 1.5979,0 q 1.208496,0 1.772461,-0.41626 0.563965,-0.40284 1.141357,-1.89331 l 0.295411,-0.80567 -5.720215,-14.622801 4.135742,0 3.4375,9.761963 3.289795,-9.761963 4.135742,0 -6.243896,16.663821 z" />
    <path
       style="font-style:normal;font-variant:normal;font-weight:bold;font-stretch:normal;font-size:27.5px;font-family:monospace;-inkscape-font-specification:'monospace Bold'"
       id="path4254"
       d="m 109.54199,96.253864 q -2.20215,0 -3.07495,0.563964 -0.8728,0.563965 -0.8728,1.933594 0,1.020508 0.60425,1.624758 0.60424,0.60425 1.63818,0.60425 1.55762,0 2.41699,-1.168217 0.85938,-1.18164 0.85938,-3.289795 l 0,-0.268554 -1.57105,0 z m 5.47852,-1.517334 0,8.58032 -3.90747,0 0,-1.67846 q -0.71167,0.99365 -1.82617,1.53076 -1.11451,0.53711 -2.45728,0.53711 -2.5647,0 -4.00146,-1.3562 -1.42334,-1.35621 -1.42334,-3.786626 0,-2.631836 1.70532,-3.880615 1.70532,-1.262207 5.2771,-1.262207 l 2.72583,0 0,-0.657959 q 0,-0.953369 -0.69825,-1.436768 -0.68481,-0.496826 -2.02758,-0.496826 -1.40992,0 -2.73926,0.362549 -1.31592,0.349121 -2.75269,1.127929 l 0,-3.356933 q 1.30249,-0.537109 2.64527,-0.792236 1.34277,-0.255127 2.84668,-0.255127 3.66577,0 5.14282,1.490478 1.49048,1.490479 1.49048,5.330811 z" />
    <path
       style="font-style:normal;font-variant:normal;font-weight:bold;font-stretch:normal;font-size:27.5px;font-family:monospace;-inkscape-font-specification:'monospace Bold'"
       id="path4256"
       d="m 132.14087,92.426959 q -0.64453,-0.59082 -1.51733,-0.88623 -0.85938,-0.29541 -1.89332,-0.29541 -1.24877,0 -2.18872,0.443115 -0.92651,0.429687 -1.43676,1.262207 -0.32227,0.510254 -0.45655,1.235352 -0.12085,0.725097 -0.12085,2.202148 l 0,6.928709 -3.93432,0 0,-15.039061 3.93432,0 0,2.336426 q 0.5774,-1.289062 1.77246,-1.987304 1.19507,-0.71167 2.79297,-0.71167 0.80567,0 1.57105,0.201416 0.77881,0.187988 1.47705,0.563964 l 0,3.746338 z" />
    <path
       style="font-style:normal;font-variant:normal;font-weight:bold;font-stretch:normal;font-size:27.5px;font-family:monospace;-inkscape-font-specification:'monospace Bold'"
       id="path4258"
       d="m 143.84985,90.412799 0,-7.989502 3.9209,0 0,20.893553 -3.9209,0 0,-2.229 q -0.6311,1.30249 -1.63818,1.96045 -0.99365,0.65796 -2.34985,0.65796 -2.57813,0 -4.00147,-2.06787 -1.42334,-2.067876 -1.42334,-5.827642 0,-3.813476 1.43677,-5.854492 1.45019,-2.041015 4.12231,-2.041015 1.2085,0 2.16187,0.631103 0.9668,0.617676 1.69189,1.866455 z m -5.47851,5.424805 q 0,2.175293 0.7251,3.410644 0.72509,1.235352 2.00073,1.235352 1.27563,0 2.01416,-1.235352 0.73852,-1.235351 0.73852,-3.410644 0,-2.175293 -0.73852,-3.410645 -0.73853,-1.235351 -2.01416,-1.235351 -1.27564,0 -2.00073,1.235351 -0.7251,1.235352 -0.7251,3.410645 z" />
    <path
       style="font-style:normal;font-variant:normal;font-weight:bold;font-stretch:normal;font-size:27.5px;font-family:monospace;-inkscape-font-specification:'monospace Bold'"
       id="path4260"
       d="m 173.1626,94.521686 q -2.99439,-1.141358 -4.05518,-2.390137 -1.06079,-1.262207 -1.06079,-3.383789 0,-2.72583 1.74561,-4.283447 1.7456,-1.557617 4.7937,-1.557617 1.38305,0 2.76611,0.322265 1.38306,0.308838 2.73926,0.926514 l 0,3.867187 q -1.27564,-0.899658 -2.59155,-1.369628 -1.31592,-0.469971 -2.60498,-0.469971 -1.43677,0 -2.20215,0.577392 -0.76538,0.577393 -0.76538,1.651612 0,0.832519 0.55053,1.383056 0.56397,0.53711 2.33643,1.195069 l 1.70532,0.644531 q 2.41699,0.88623 3.55835,2.349854 1.14136,1.463623 1.14136,3.692626 0,3.034667 -1.79932,4.538577 -1.78589,1.49048 -5.41138,1.49048 -1.49047,0 -2.99438,-0.36255 -1.49048,-0.34912 -2.88696,-1.04737 l 0,-4.095455 q 1.58447,1.12793 3.06152,1.678467 1.49048,0.550538 2.94067,0.550538 1.46363,0 2.26929,-0.65796 0.80567,-0.671387 0.80567,-1.866455 0,-0.899658 -0.53711,-1.571045 -0.53711,-0.684814 -1.55762,-1.074219 l -1.94702,-0.738525 z" />
    <path
       style="font-style:normal;font-variant:normal;font-weight:bold;font-stretch:normal;font-size:27.5px;font-family:monospace;-inkscape-font-specification:'monospace Bold'"
       id="path4262"
       d="m 188.79248,101.19527 0,7.8418 -3.9209,0 0,-20.759281 3.9209,0 0,2.25586 q 0.61768,-1.30249 1.62476,-1.960449 1.00708,-0.657959 2.36328,-0.657959 2.57812,0 4.00146,2.067871 1.42334,2.067871 1.42334,5.827636 0,3.813477 -1.45019,5.854492 -1.43677,2.04102 -4.10889,2.04102 -1.2085,0 -2.17529,-0.61768 -0.95337,-0.6311 -1.67847,-1.89331 z m 5.47852,-5.411377 q 0,-2.175293 -0.7251,-3.410645 -0.7251,-1.235351 -2.00073,-1.235351 -1.27564,0 -2.01416,1.235351 -0.73853,1.235352 -0.73853,3.410645 0,2.175293 0.73853,3.410644 0.73852,1.235353 2.01416,1.235353 1.27563,0 2.00073,-1.235353 0.7251,-1.235351 0.7251,-3.410644 z" />
    <path
       style="font-style:normal;font-variant:normal;font-weight:bold;font-stretch:normal;font-size:27.5px;font-family:monospace;-inkscape-font-specification:'monospace Bold'"
       id="path4265"
       d="m 201.54883,98.066608 0,-9.788819 3.93432,0 0,9.184571 q 0,1.624756 0.45655,2.322998 0.45654,0.698242 1.51733,0.698242 1.06079,0 1.65161,-0.939941 0.60425,-0.939942 0.60425,-2.631836 l 0,-8.634034 3.93433,0 0,15.039061 -3.93433,0 0,-2.229 q -0.41626,1.24878 -1.42334,1.93359 -0.99365,0.68482 -2.40356,0.68482 -2.14844,0 -3.24952,-1.42334 -1.08764,-1.42334 -1.08764,-4.216312 z" />
    <path
       style="font-style:normal;font-variant:normal;font-weight:bold;font-stretch:normal;font-size:27.5px;font-family:monospace;-inkscape-font-specification:'monospace Bold'"
       id="path4267"
       d="m 231.39868,92.426959 q -0.64453,-0.59082 -1.51733,-0.88623 -0.85938,-0.29541 -1.89331,-0.29541 -1.24878,0 -2.18872,0.443115 -0.92652,0.429687 -1.43677,1.262207 -0.32227,0.510254 -0.45654,1.235352 -0.12085,0.725097 -0.12085,2.202148 l 0,6.928709 -3.93433,0 0,-15.039061 3.93433,0 0,2.336426 q 0.57739,-1.289062 1.77246,-1.987304 1.19507,-0.71167 2.79297,-0.71167 0.80566,0 1.57104,0.201416 0.77881,0.187988 1.47705,0.563964 l 0,3.746338 z" />
  </g>
</svg>
