<?xml version="1.0" encoding="UTF-8" standalone="no"?>
<svg
   xmlns:dc="http://purl.org/dc/elements/1.1/"
   xmlns:cc="http://creativecommons.org/ns#"
   xmlns:rdf="http://www.w3.org/1999/02/22-rdf-syntax-ns#"
   xmlns:svg="http://www.w3.org/2000/svg"
   xmlns="http://www.w3.org/2000/svg"
   version="1.1"
   id="svg2"
   viewBox="0 0 599.99999 799.99999"
   height="800"
   width="600">
  <defs
     id="defs4" />
  <metadata
     id="metadata7">
    <rdf:RDF>
      <cc:Work
         rdf:about="">
        <dc:format>image/svg+xml</dc:format>
        <dc:type
           rdf:resource="http://purl.org/dc/dcmitype/StillImage" />
        <dc:title></dc:title>
      </cc:Work>
    </rdf:RDF>
  </metadata>
  <g
     transform="translate(0,-252.36235)"
     id="layer1">
    <path
       id="path4149"
       d="m 331.83511,1055.4567 0,-22.7923 -12.12183,-17.6777 6.06092,-12.1218 -15.15229,-25.25384 -8.5863,23.23354 -4.04061,20.7081 -12.12183,21.7183 -19.69797,-19.1929 -13.63706,-32.82998 -29.29443,-14.64721 -7.57614,-19.1929 7.07107,-26.76904 -8.08122,-18.68782 -21.21321,-9.59645 -2.0203,-14.14214 14.14213,-15.65736 0,-13.63706 -13.63706,-21.21321 17.67767,-13.63706 -1.01015,-17.67766 -14.64721,-19.1929 8.5863,-10.60661 -10.60661,-44.95178 -5.55584,-44.95179 8.5863,-32.82996 3.03046,-32.32488 14.14213,-21.71828 -0.50507,-23.23351 17.17259,-22.72843 0.50508,-26.76904 -10.6066,-28.28428 3.03045,-22.72843 25.75889,-38.89087 50.00255,-34.34519 214.66026,-156.07046"
       style="fill:none;fill-rule:evenodd;stroke:#34b8b8;stroke-width:10;stroke-linecap:butt;stroke-linejoin:miter;stroke-miterlimit:4;stroke-dasharray:none;stroke-opacity:1" />
    <path
       id="path4151"
       d="m 541.12574,1057.6986 7.38709,-29.5799 1.01015,-25.2538 6.06092,-46.46704 -8.08122,-19.1929 -1.01015,-48.48732 -14.14214,-17.1726 2.02031,-22.22335 -10.10153,-16.16244 6.06092,-26.26397 24.24366,-3.03046 32.32488,11.11168 11.11168,-8.08122 -12.12183,-39.39595 10.10152,-36.36549 12.12183,-15.15229 -5.05076,-43.43656 -8.08122,-23.23351 10.10152,-31.31472 16.16245,-12.12184"
       style="fill:none;fill-rule:evenodd;stroke:#34b8b8;stroke-width:10;stroke-linecap:butt;stroke-linejoin:miter;stroke-miterlimit:4;stroke-dasharray:none;stroke-opacity:1" />
    <path
       id="path4155"
       transform="translate(0,252.36235)"
       d="m 569,-1 -17,0.5 -4.5,9 -5,14 -10.5,-2 -6,12.5 7.5,2.5 13,2 8.5,5.5 -5,10.5 14,2.5 17,1.5 2,-10 17.5,-10 -7,-17 -7,-5 -16,-9.5 z M 486.75,38.75 459.5,50.5 449.5,68 435,87 l 9,12.5 18.5,-2 6,15.5 12,14.5 24,5.5 4.5,7 29.5,0 5.5,-15.5 15,-1.5 -9,8.5 5.5,7 2,24.5 10.5,9.5 12.5,-3 13.5,4 10.46352,10.7897 1,-90.637339 L 595,96.5 586.5,110.5 582,101 572,99 575.5,89 557.5,62.5 543,57 535,65.5 528,57 509.5,41 Z M 603,60.5 584.32812,61.810547 589.5,71.5 586,83 l 8,7 8.32618,-9.7897 z m -13.98047,117.95312 -15.55664,1.41407 -14.84766,2.12109 -19.80078,2.1211 -1.41406,16.9707 -9.19141,1.41406 -16.9707,13.43555 -22.62695,3.53515 -20.50586,-5.65625 -2.12305,32.52735 6.36524,16.9707 26.86914,11.3125 -15.55664,3.53516 -5.65625,17.67773 -2.1211,15.55664 30.40625,2.1211 0.70703,14.84961 4.24219,19.09179 14.84961,14.14258 -0.70703,32.52734 7.77734,19.0918 16.26368,4.94922 11.31445,-7.77734 8.48437,-11.31446 14.84961,-16.9707 -4.94922,-19.0918 8.48438,-9.1914 14.49675,4.24086 3.0931,-24.83259 -8.4857,-0.18106 -6.98306,-4.68424 -6.36328,-13.43555 -16.9707,-11.3125 -2.1211,5.65625 -9.19336,-0.70703 -6.36328,-13.43555 23.33399,-0.70703 -2.1211,-14.84766 -9.1914,-19.80078 6.36328,-12.72656 -3.53516,-22.62695 -10.60742,-6.36524 17.67774,1.41406 2.12109,22.62696 18.38476,6.36523 14.23047,1.32618 -0.79492,-49.41016 z"
       style="fill:#34b8b8;fill-opacity:1;fill-rule:evenodd;stroke:none;stroke-width:5;stroke-linecap:butt;stroke-linejoin:miter;stroke-miterlimit:4;stroke-dasharray:none;stroke-opacity:1" />
    <path
       id="path4174"
       d="m 13.753682,649.75457 10.002678,-8.12718 9.377511,11.87818 -10.002678,10.62784 -9.377511,-4.37617 z"
       style="fill:#fd8c1b;fill-rule:evenodd;stroke:none;stroke-width:1px;stroke-linecap:butt;stroke-linejoin:miter;stroke-opacity:1;fill-opacity:1" />
    <path
       id="path4178"
       d="m 224.43442,746.03134 10.62851,-0.62449 5.43775,4.68875 -3.56225,10.93876 -8.12717,2.50067 -9.37751,-5.62651 z"
       style="fill:#fd8c1b;fill-opacity:1;fill-rule:evenodd;stroke:none;stroke-width:1px;stroke-linecap:butt;stroke-linejoin:miter;stroke-opacity:1" />
    <path
       id="path4180"
       d="m 209.43107,997.97279 10.00268,-4.37617 5.00134,8.12718 -10.62785,5.0013 z"
       style="fill:#fd8c1b;fill-rule:evenodd;stroke:none;stroke-width:1px;stroke-linecap:butt;stroke-linejoin:miter;stroke-opacity:1;fill-opacity:1" />
    <path
       id="path4182"
       d="m 215.37016,809.48483 6.56426,-6.87684 7.81459,6.87684 -9.6901,8.12717 z"
       style="fill:#fd8c1b;fill-rule:evenodd;stroke:none;stroke-width:1px;stroke-linecap:butt;stroke-linejoin:miter;stroke-opacity:1;fill-opacity:1" />
    <path
       style="fill:#fd8c1b;fill-opacity:1;fill-rule:evenodd;stroke:none;stroke-width:1px;stroke-linecap:butt;stroke-linejoin:miter;stroke-opacity:1"
       d="m 239.99807,579.86346 5.16038,-2.69765 6.46799,1.42112 0.38184,9.164 -5.91842,12.40958 -10.69133,4.58201 -6.52228,-5.01297 2.11762,-8.79292 z"
       id="path4264" />
    <path
       id="path4277"
       d="m 146.72466,330.05277 1.41421,38.89088 10.25305,26.5165 2.47487,31.1127 c 0,0 8.83884,10.96015 9.19239,12.72792 0.35355,1.76777 14.49569,-1.76777 14.49569,-1.76777 l 9.89949,-13.08147 31.81981,-3.53554 18.73833,-12.37436 6.36396,-14.14214 31.1127,-1.06066 1.41421,-22.62742 2.12132,-17.67767 -6.0104,-7.77817 -1.41422,-15.55635 -19.09188,-12.72792 -16.61701,-15.55635 -9.8995,-8.13173 c 0,0 -15.55634,1.76777 -15.9099,3.88909 -0.35355,2.12132 -13.78858,22.27386 -13.78858,22.27386 l -16.26346,6.71751 -7.77817,8.13173 -11.31371,-1.76776 z"
       style="fill:#fd8c1b;fill-rule:evenodd;stroke:none;stroke-width:1px;stroke-linecap:butt;stroke-linejoin:miter;stroke-opacity:1;fill-opacity:1" />
  </g>
</svg>
